<svg width="34" height="34" viewBox="0 0 34 34" fill="none" xmlns="http://www.w3.org/2000/svg">
<path d="M10.6469 22.0801L5.95664 17.7604C5.80197 17.6084 5.61799 17.4896 5.41593 17.4111C5.21386 17.3325 4.99792 17.2959 4.78125 17.3035V12.75C4.78069 12.3275 4.6126 11.9224 4.31383 11.6237C4.01507 11.3249 3.61002 11.1568 3.1875 11.1562H2.125C1.70249 11.1568 1.29744 11.3249 0.998672 11.6237C0.699908 11.9224 0.531815 12.3275 0.531252 12.75V24.4687C0.530531 24.8863 0.694447 25.2874 0.987463 25.585L4.62918 29.2818C4.72631 29.3816 4.78084 29.5152 4.78125 29.6544V30.8125C4.78125 30.9534 4.83722 31.0885 4.93685 31.1882C5.03648 31.2878 5.17161 31.3438 5.3125 31.3438H10.625C10.7659 31.3438 10.901 31.2878 11.0007 31.1882C11.1003 31.0885 11.1563 30.9534 11.1563 30.8125V25.5013L11.1609 23.2555C11.1613 23.0346 11.1158 22.8161 11.0273 22.6138C10.9388 22.4115 10.8093 22.2297 10.6469 22.0801ZM10.0938 25.5V30.2812H5.84375V29.6544C5.84498 29.2357 5.68022 28.8336 5.38555 28.5361L1.74582 24.8412C1.64813 24.7419 1.5935 24.6081 1.59375 24.4687V12.75C1.59395 12.6092 1.64998 12.4741 1.74957 12.3746C1.84915 12.275 1.98417 12.2189 2.125 12.2188H3.1875C3.32834 12.2189 3.46335 12.275 3.56294 12.3746C3.66253 12.4741 3.71856 12.6092 3.71875 12.75V17.7617C3.7161 17.7637 3.71344 17.7663 3.71078 17.7683L2.95973 18.5194C2.66081 18.8184 2.49288 19.2238 2.49288 19.6466C2.49288 20.0694 2.66081 20.4749 2.95973 20.7739L6.34047 24.1546C6.38983 24.204 6.44843 24.2431 6.51292 24.2698C6.57741 24.2965 6.64653 24.3103 6.71633 24.3103C6.78613 24.3103 6.85525 24.2965 6.91974 24.2698C6.98423 24.2431 7.04283 24.204 7.09219 24.1546C7.14155 24.1053 7.1807 24.0467 7.20741 23.9822C7.23413 23.9177 7.24788 23.8486 7.24788 23.7787C7.24788 23.7089 7.23413 23.6398 7.20741 23.5753C7.1807 23.5108 7.14155 23.4523 7.09219 23.4029L3.71145 20.0221C3.66199 19.9729 3.62274 19.9144 3.59596 19.85C3.56918 19.7855 3.55539 19.7164 3.55539 19.6466C3.55539 19.5768 3.56918 19.5077 3.59596 19.4433C3.62274 19.3788 3.66199 19.3203 3.71145 19.2711L4.4625 18.52C4.48752 18.4949 4.51487 18.4722 4.54418 18.4523C4.64648 18.3847 4.76897 18.3546 4.89094 18.3669C5.01291 18.3793 5.12687 18.4334 5.21356 18.52C5.21887 18.5247 5.22418 18.53 5.22949 18.5346L9.92774 22.8617C9.98178 22.9115 10.0249 22.9719 10.0542 23.0393C10.0836 23.1066 10.0987 23.1793 10.0984 23.2528L10.0938 25.5Z" fill="#5E9C60"/>
<path d="M31.8797 11.1562H30.8172C30.3946 11.1568 29.9896 11.3249 29.6908 11.6237C29.3921 11.9224 29.224 12.3275 29.2234 12.75V17.3035C29.0067 17.2957 28.7907 17.3322 28.5886 17.4108C28.3865 17.4893 28.2026 17.6083 28.048 17.7604L23.3584 22.0794C23.1959 22.2291 23.0662 22.411 22.9776 22.6134C22.889 22.8159 22.8434 23.0345 22.8438 23.2555L22.8484 25.5V30.8125C22.8484 30.9534 22.9044 31.0885 23.004 31.1882C23.1036 31.2878 23.2388 31.3438 23.3797 31.3438H28.6922C28.833 31.3438 28.9682 31.2878 29.0678 31.1882C29.1674 31.0885 29.2234 30.9534 29.2234 30.8125V29.6544C29.2239 29.5149 29.2787 29.381 29.3761 29.2812L33.0185 25.5837C33.3109 25.2863 33.4743 24.8857 33.4734 24.4687V12.75C33.4728 12.3275 33.3047 11.9224 33.006 11.6237C32.7072 11.3249 32.3022 11.1568 31.8797 11.1562ZM32.4109 24.4687C32.4113 24.6074 32.3571 24.7407 32.2602 24.8399L28.6198 28.5354C28.3246 28.8329 28.1596 29.2353 28.1609 29.6544V30.2812H23.9109V25.4987L23.9063 23.2528C23.9061 23.1792 23.9213 23.1064 23.9507 23.039C23.9804 22.9716 24.0236 22.9111 24.0776 22.861L28.7752 18.5346C28.7805 18.53 28.7858 18.5247 28.7911 18.52C28.8778 18.4333 28.9917 18.3792 29.1137 18.3669C29.2357 18.3546 29.3582 18.3847 29.4605 18.4523C29.4899 18.472 29.5173 18.4947 29.5422 18.52L30.2932 19.2711C30.3427 19.3203 30.3819 19.3788 30.4087 19.4433C30.4355 19.5077 30.4493 19.5768 30.4493 19.6466C30.4493 19.7164 30.4355 19.7855 30.4087 19.85C30.3819 19.9144 30.3427 19.9729 30.2932 20.0221L26.9125 23.4029C26.8128 23.5026 26.7568 23.6378 26.7568 23.7787C26.7568 23.9197 26.8128 24.0549 26.9125 24.1546C27.0121 24.2543 27.1473 24.3103 27.2883 24.3103C27.4293 24.3103 27.5645 24.2543 27.6642 24.1546L31.0449 20.7739C31.3438 20.4749 31.5118 20.0694 31.5118 19.6466C31.5118 19.2238 31.3438 18.8184 31.0449 18.5194L30.2939 17.7683C30.2914 17.7659 30.2887 17.7637 30.2859 17.7617V12.75C30.2861 12.6092 30.3421 12.4741 30.4417 12.3746C30.5413 12.275 30.6763 12.2189 30.8172 12.2188H31.8797C32.0205 12.2189 32.1555 12.275 32.2551 12.3746C32.3547 12.4741 32.4107 12.6092 32.4109 12.75V24.4687Z" fill="#5E9C60"/>
<path d="M5.84375 16.4688H28.1562C28.2971 16.4688 28.4323 16.4128 28.5319 16.3132C28.6315 16.2135 28.6875 16.0784 28.6875 15.9375V3.1875C28.6875 3.0466 28.6315 2.91148 28.5319 2.81185C28.4323 2.71222 28.2971 2.65625 28.1562 2.65625H5.84375C5.70285 2.65625 5.56773 2.71222 5.4681 2.81185C5.36847 2.91148 5.3125 3.0466 5.3125 3.1875V15.9375C5.3125 16.0784 5.36847 16.2135 5.4681 16.3132C5.56773 16.4128 5.70285 16.4688 5.84375 16.4688ZM6.375 3.71875H27.625V15.4062H6.375V3.71875Z" fill="#5E9C60"/>
<path d="M17 6.375C16.3696 6.375 15.7533 6.56194 15.2291 6.91219C14.7049 7.26244 14.2964 7.76026 14.0551 8.3427C13.8139 8.92514 13.7508 9.56604 13.8737 10.1844C13.9967 10.8027 14.3003 11.3706 14.7461 11.8164C15.1919 12.2622 15.7598 12.5658 16.3782 12.6888C16.9965 12.8117 17.6374 12.7486 18.2198 12.5074C18.8022 12.2661 19.3001 11.8576 19.6503 11.3334C20.0006 10.8092 20.1875 10.1929 20.1875 9.5625C20.1866 8.71741 19.8504 7.90721 19.2529 7.30965C18.6553 6.71208 17.8451 6.37595 17 6.375ZM17 11.6875C16.5797 11.6875 16.1689 11.5629 15.8194 11.3294C15.47 11.0959 15.1976 10.764 15.0368 10.3757C14.8759 9.98741 14.8338 9.56014 14.9158 9.14793C14.9978 8.73572 15.2002 8.35708 15.4974 8.0599C15.7946 7.76271 16.1732 7.56032 16.5854 7.47833C16.9976 7.39634 17.4249 7.43842 17.8132 7.59926C18.2015 7.76009 18.5334 8.03246 18.7669 8.38191C19.0004 8.73137 19.125 9.14222 19.125 9.5625C19.1244 10.1259 18.9003 10.666 18.5019 11.0644C18.1035 11.4628 17.5634 11.6869 17 11.6875Z" fill="#5E9C60"/>
<path d="M26.5625 6.90625C25.9991 6.90562 25.459 6.68153 25.0606 6.28315C24.6622 5.88478 24.4381 5.34464 24.4375 4.78125C24.4375 4.64035 24.3815 4.50523 24.2819 4.4056C24.1823 4.30597 24.0471 4.25 23.9062 4.25H10.0938C9.95285 4.25 9.81773 4.30597 9.7181 4.4056C9.61847 4.50523 9.5625 4.64035 9.5625 4.78125C9.56187 5.34464 9.33778 5.88478 8.9394 6.28315C8.54103 6.68153 8.00089 6.90562 7.4375 6.90625C7.2966 6.90625 7.16148 6.96222 7.06185 7.06185C6.96222 7.16148 6.90625 7.2966 6.90625 7.4375V11.6875C6.90625 11.8284 6.96222 11.9635 7.06185 12.0632C7.16148 12.1628 7.2966 12.2188 7.4375 12.2188C8.00089 12.2194 8.54103 12.4435 8.9394 12.8418C9.33778 13.2402 9.56187 13.7804 9.5625 14.3438C9.5625 14.4846 9.61847 14.6198 9.7181 14.7194C9.81773 14.819 9.95285 14.875 10.0938 14.875H23.9062C24.0471 14.875 24.1823 14.819 24.2819 14.7194C24.3815 14.6198 24.4375 14.4846 24.4375 14.3438C24.4381 13.7804 24.6622 13.2402 25.0606 12.8418C25.459 12.4435 25.9991 12.2194 26.5625 12.2188C26.7034 12.2188 26.8385 12.1628 26.9382 12.0632C27.0378 11.9635 27.0938 11.8284 27.0938 11.6875V7.4375C27.0938 7.2966 27.0378 7.16148 26.9382 7.06185C26.8385 6.96222 26.7034 6.90625 26.5625 6.90625ZM26.0312 11.2005C25.3791 11.312 24.7775 11.6231 24.3097 12.0909C23.8418 12.5588 23.5307 13.1603 23.4193 13.8125H10.5807C10.4693 13.1603 10.1582 12.5588 9.69032 12.0909C9.22247 11.6231 8.62094 11.312 7.96875 11.2005V7.92446C8.62094 7.81303 9.22247 7.50192 9.69032 7.03407C10.1582 6.56622 10.4693 5.96469 10.5807 5.3125H23.4193C23.5307 5.96469 23.8418 6.56622 24.3097 7.03407C24.7775 7.50192 25.3791 7.81303 26.0312 7.92446V11.2005Z" fill="#5E9C60"/>
</svg>
