<svg width="34" height="34" viewBox="0 0 34 34" fill="none" xmlns="http://www.w3.org/2000/svg">
<path d="M25.6629 18.7265C25.3489 18.6542 25.0216 18.663 24.7118 18.752C24.402 18.841 24.12 19.0072 23.8921 19.2351C23.6642 19.4631 23.498 19.7451 23.4091 20.0549C23.3201 20.3647 23.3114 20.692 23.3836 21.0061C23.4614 21.3535 23.6364 21.6717 23.8882 21.9235C24.1399 22.1753 24.4581 22.3503 24.8055 22.4282C24.9451 22.4591 25.0876 22.4748 25.2305 22.475C25.6972 22.476 26.1479 22.3052 26.4966 21.9952C26.8453 21.6851 27.0676 21.2574 27.1211 20.7939C27.1746 20.3303 27.0555 19.8633 26.7865 19.4819C26.5176 19.1006 26.1176 18.8317 25.6629 18.7265ZM25.919 21.2621C25.8018 21.3797 25.6564 21.4652 25.4967 21.5105C25.337 21.5557 25.1683 21.5592 25.0068 21.5206C24.8324 21.48 24.6728 21.3913 24.5463 21.2645C24.4198 21.1377 24.3314 20.9779 24.2913 20.8034C24.2525 20.642 24.2559 20.4733 24.3011 20.3135C24.3463 20.1538 24.4318 20.0084 24.5494 19.8912C24.639 19.8009 24.7458 19.7294 24.8634 19.6809C24.9809 19.6324 25.107 19.6078 25.2342 19.6086C25.3111 19.609 25.3877 19.6179 25.4627 19.6352C25.6371 19.6755 25.7968 19.7639 25.9236 19.8904C26.0504 20.0169 26.1392 20.1764 26.1798 20.3508C26.218 20.5122 26.2141 20.6808 26.1684 20.8404C26.1227 20.9999 26.0369 21.145 25.919 21.2618V21.2621Z" fill="#5E9C60"/>
<path d="M9.19413 18.7264C8.88006 18.6542 8.5528 18.663 8.24307 18.752C7.93334 18.841 7.65129 19.0072 7.42342 19.2351C7.19555 19.4629 7.02933 19.745 6.94036 20.0547C6.85139 20.3644 6.8426 20.6917 6.9148 21.0058C6.99264 21.3533 7.16766 21.6715 7.41946 21.9234C7.67125 22.1752 7.98945 22.3503 8.33696 22.4282C8.47651 22.4591 8.61902 22.4748 8.76196 22.4749C9.22858 22.476 9.67924 22.3051 10.0279 21.995C10.3766 21.6849 10.5989 21.2573 10.6523 20.7937C10.7058 20.3302 10.5866 19.8632 10.3177 19.4819C10.0487 19.1005 9.64874 18.8316 9.19413 18.7264ZM9.45046 21.2621C9.33333 21.3798 9.18792 21.4653 9.02818 21.5106C8.86844 21.5559 8.69974 21.5593 8.5383 21.5206C8.36388 21.4798 8.20436 21.3911 8.07783 21.2643C7.9513 21.1375 7.86283 20.9779 7.82244 20.8034C7.78378 20.6419 7.78724 20.4732 7.83249 20.3135C7.87775 20.1538 7.96329 20.0084 8.08089 19.8912C8.1705 19.8009 8.27722 19.7294 8.3948 19.6809C8.51239 19.6324 8.63847 19.6078 8.76568 19.6086C8.84257 19.609 8.91918 19.6179 8.99411 19.6351C9.16839 19.6755 9.32783 19.764 9.45433 19.8905C9.58083 20.017 9.66931 20.1765 9.70971 20.3507C9.74818 20.5121 9.74455 20.6806 9.69915 20.8402C9.65375 20.9997 9.56812 21.1449 9.45046 21.2618V21.2621Z" fill="#5E9C60"/>
<path d="M31.1084 14.9122C29.4881 14.4474 26.6592 13.8949 22.3306 13.8763L19.9931 10.8362C19.7503 10.5227 19.4392 10.2686 19.0834 10.0934C18.7277 9.91823 18.3366 9.82652 17.94 9.82526H9.51973C8.80904 9.82398 8.11616 10.0476 7.5403 10.4641L1.58764 14.7505C1.52791 14.7936 1.47926 14.8503 1.44569 14.9158C1.41212 14.9814 1.39459 15.054 1.39453 15.1277V19.5147C1.39502 19.9197 1.5561 20.3079 1.84242 20.5942C2.12875 20.8805 2.51695 21.0416 2.92188 21.0421H5.20253C5.20838 21.0894 5.20944 21.1361 5.21741 21.1831C5.34431 21.9172 5.69521 22.5941 6.22199 23.121C6.74876 23.6478 7.42562 23.9987 8.15973 24.1257C8.36169 24.1589 8.56601 24.1756 8.77067 24.1757C9.6437 24.1756 10.4867 23.8572 11.1419 23.2803C11.7971 22.7033 12.2195 21.9073 12.33 21.0413H21.6713C21.6771 21.0886 21.6782 21.1353 21.6862 21.1823C21.8129 21.9166 22.1637 22.5937 22.6905 23.1207C23.2173 23.6477 23.8942 23.9987 24.6285 24.1257C24.8304 24.1589 25.0348 24.1756 25.2394 24.1757C26.1125 24.1758 26.9557 23.8575 27.6109 23.2805C28.2662 22.7035 28.6885 21.9074 28.7988 21.0413H32.1406C32.2639 21.0413 32.3821 20.9923 32.4693 20.9051C32.5565 20.818 32.6055 20.6997 32.6055 20.5764V16.8938C32.6035 16.4461 32.4566 16.0111 32.1867 15.6539C31.9169 15.2966 31.5385 15.0365 31.1084 14.9122ZM31.6758 18.4134H31.0263C30.9383 18.4134 30.8538 18.3785 30.7915 18.3162C30.7293 18.2539 30.6943 18.1695 30.6943 18.0814V17.6431H31.6758V18.4134ZM2.32422 16.8781H3.20477L2.96172 18.1032C2.94414 18.1906 2.89691 18.2692 2.82803 18.3257C2.75915 18.3822 2.67285 18.4132 2.58373 18.4134H2.32422V16.8781ZM10.6516 22.464C10.3413 22.7744 9.9592 23.0035 9.5392 23.131C9.1192 23.2584 8.67424 23.2803 8.24376 23.1947C7.81327 23.1091 7.41055 22.9186 7.07128 22.6402C6.73201 22.3617 6.46666 22.0038 6.29875 21.5983C6.13085 21.1928 6.06556 20.7521 6.10869 20.3153C6.15182 19.8785 6.30202 19.4591 6.54599 19.0942C6.78996 18.7294 7.12016 18.4303 7.50734 18.2236C7.89451 18.0168 8.32671 17.9088 8.76562 17.909C8.91833 17.909 9.07078 17.9216 9.22144 17.9465C9.70332 18.0299 10.153 18.2441 10.5214 18.5657C10.8898 18.8874 11.1627 19.3041 11.3103 19.7703C11.4579 20.2366 11.4745 20.7344 11.3583 21.2094C11.2422 21.6845 10.9977 22.1185 10.6516 22.464ZM27.1203 22.464C26.81 22.7743 26.428 23.0032 26.0081 23.1306C25.5881 23.2579 25.1433 23.2798 24.7129 23.1941C24.2825 23.1085 23.8799 22.918 23.5407 22.6396C23.2015 22.3612 22.9363 22.0034 22.7684 21.5979C22.6005 21.1925 22.5352 20.7519 22.5783 20.3152C22.6214 19.8785 22.7716 19.4592 23.0154 19.0944C23.2593 18.7296 23.5894 18.4305 23.9764 18.2238C24.3635 18.017 24.7956 17.9089 25.2344 17.909C25.3872 17.9091 25.5397 17.9216 25.6905 17.9465C26.1723 18.0299 26.622 18.2441 26.9903 18.5658C27.3587 18.8875 27.6315 19.3042 27.7791 19.7704C27.9267 20.2366 27.9433 20.7345 27.8271 21.2095C27.7109 21.6845 27.4664 22.1185 27.1203 22.464ZM28.7967 20.1124C28.7908 20.0654 28.7898 20.0186 28.7818 19.9713C28.671 19.3205 28.3833 18.7127 27.9502 18.2145C27.5171 17.7162 26.9552 17.3468 26.3261 17.1466C25.697 16.9463 25.0249 16.9231 24.3835 17.0793C23.7421 17.2355 23.156 17.5652 22.6894 18.0323C22.1275 18.5924 21.7689 19.3243 21.6705 20.1116H12.3287C12.3229 20.0646 12.3218 20.0178 12.3138 19.9705C12.2031 19.3197 11.9154 18.7119 11.4822 18.2137C11.0491 17.7154 10.4872 17.346 9.85814 17.1458C9.22905 16.9455 8.557 16.9223 7.91556 17.0785C7.27412 17.2347 6.68804 17.5644 6.22147 18.0315C5.65957 18.5916 5.30093 19.3235 5.20253 20.1108H2.92188C2.76341 20.1107 2.61148 20.0476 2.49942 19.9356C2.38737 19.8235 2.32436 19.6716 2.32422 19.5131V19.3415H2.58373C2.88791 19.3409 3.18251 19.2351 3.4176 19.0421C3.65268 18.8491 3.81379 18.5807 3.87361 18.2825L4.22662 16.5028C4.24002 16.4354 4.2383 16.3659 4.22158 16.2992C4.20486 16.2325 4.17356 16.1704 4.12994 16.1173C4.08631 16.0642 4.03145 16.0215 3.9693 15.9921C3.90715 15.9628 3.83927 15.9476 3.77055 15.9477H2.32422V15.3659L8.0835 11.2177C8.50131 10.9156 9.00393 10.7535 9.51947 10.7544H17.9398C18.194 10.7552 18.4446 10.814 18.6727 10.9263C18.9007 11.0386 19.1001 11.2015 19.2557 11.4025L21.7329 14.6235C21.7763 14.68 21.8322 14.7257 21.8961 14.7572C21.96 14.7887 22.0303 14.805 22.1016 14.8049C26.6812 14.8049 29.55 15.4321 30.8521 15.8058C31.0588 15.8654 31.2444 15.9823 31.3875 16.1429C31.5306 16.3035 31.6254 16.5013 31.6609 16.7135H30.2297C30.1064 16.7135 29.9882 16.7624 29.901 16.8496C29.8139 16.9368 29.7649 17.055 29.7649 17.1783V18.0814C29.7652 18.4159 29.8983 18.7367 30.1348 18.9732C30.3714 19.2097 30.6921 19.3428 31.0266 19.3431H31.676V20.1134L28.7967 20.1124Z" fill="#5E9C60"/>
<path d="M18.6766 11.8467C18.5894 11.7341 18.4778 11.643 18.3501 11.5801C18.2224 11.5172 18.082 11.4843 17.9397 11.4838H9.51941C9.15701 11.4831 8.80367 11.5971 8.51003 11.8095L5.53716 13.9518C5.45737 14.0092 5.39786 14.0905 5.36719 14.1839C5.33651 14.2774 5.33626 14.3781 5.36646 14.4717C5.39666 14.5653 5.45576 14.6469 5.53526 14.7047C5.61476 14.7626 5.71056 14.7938 5.80889 14.7938C9.4855 14.8434 13.1477 15.2644 16.7396 16.0505C16.8095 16.067 16.8823 16.067 16.9521 16.0505L20.448 15.227C20.5237 15.2093 20.5937 15.1728 20.6516 15.121C20.7095 15.0692 20.7535 15.0037 20.7795 14.9305C20.8056 14.8573 20.8129 14.7788 20.8007 14.702C20.7886 14.6253 20.7573 14.5528 20.7099 14.4912L18.6766 11.8467ZM9.05377 12.5639C9.18933 12.4659 9.35241 12.4133 9.51968 12.4135H12.8764V14.4097C10.9999 14.1356 9.11012 13.9615 7.21511 13.8883L9.05377 12.5639ZM16.8446 15.12C16.5035 15.0437 15.3836 14.8012 13.8061 14.5505V12.4143H17.9397L19.5335 14.4878L16.8446 15.12Z" fill="#5E9C60"/>
</svg>
