<svg width="34" height="34" viewBox="0 0 34 34" fill="none" xmlns="http://www.w3.org/2000/svg">
<path d="M29.75 9.01856V6.90625C29.75 6.76535 29.694 6.63023 29.5944 6.5306C29.4948 6.43097 29.3596 6.375 29.2188 6.375H27.2546L25.1043 4.94142C25.4066 4.73489 25.6504 4.45372 25.8121 4.1252C25.9738 3.79668 26.0478 3.43196 26.027 3.0664C26.0062 2.70085 25.8913 2.34687 25.6934 2.03881C25.4955 1.73075 25.2214 1.47905 24.8976 1.30814C24.5738 1.13723 24.2113 1.05291 23.8453 1.06335C23.4793 1.07379 23.1222 1.17864 22.8087 1.36772C22.4951 1.55681 22.2358 1.82372 22.0557 2.14256C21.8757 2.4614 21.7812 2.82135 21.7812 3.1875C21.7812 3.32839 21.8372 3.46352 21.9368 3.56315C22.0365 3.66278 22.1716 3.71875 22.3125 3.71875C22.4534 3.71875 22.5885 3.66278 22.6882 3.56315C22.7878 3.46352 22.8438 3.32839 22.8438 3.1875C22.8438 2.97736 22.9061 2.77193 23.0228 2.5972C23.1396 2.42248 23.3055 2.28629 23.4996 2.20588C23.6938 2.12546 23.9074 2.10442 24.1135 2.14541C24.3196 2.18641 24.509 2.2876 24.6576 2.4362C24.8061 2.58479 24.9073 2.77411 24.9483 2.98021C24.9893 3.18632 24.9683 3.39995 24.8879 3.5941C24.8075 3.78825 24.6713 3.95419 24.4965 4.07093C24.3218 4.18768 24.1164 4.25 23.9062 4.25C23.8014 4.24997 23.6988 4.28103 23.6115 4.33925L20.5579 6.375H18.5938C18.5871 6.375 18.5809 6.37573 18.5745 6.37599C18.5591 6.37599 18.5438 6.375 18.5284 6.375H16.0983L13.948 4.94142C14.2503 4.73489 14.4942 4.45374 14.6558 4.12522C14.8175 3.7967 14.8916 3.43197 14.8708 3.06641C14.85 2.70084 14.7351 2.34686 14.5372 2.03879C14.3393 1.73072 14.0652 1.47902 13.7413 1.30811C13.4175 1.13719 13.055 1.05286 12.689 1.0633C12.323 1.07374 11.9659 1.17859 11.6524 1.36768C11.3388 1.55678 11.0795 1.82369 10.8995 2.14254C10.7195 2.46139 10.6249 2.82135 10.625 3.1875C10.625 3.32839 10.681 3.46352 10.7806 3.56315C10.8802 3.66278 11.0154 3.71875 11.1562 3.71875C11.2971 3.71875 11.4323 3.66278 11.5319 3.56315C11.6315 3.46352 11.6875 3.32839 11.6875 3.1875C11.6875 2.97736 11.7498 2.77193 11.8666 2.5972C11.9833 2.42248 12.1493 2.28629 12.3434 2.20588C12.5375 2.12546 12.7512 2.10442 12.9573 2.14541C13.1634 2.18641 13.3527 2.2876 13.5013 2.4362C13.6499 2.58479 13.7511 2.77411 13.7921 2.98021C13.8331 3.18632 13.812 3.39995 13.7316 3.5941C13.6512 3.78825 13.515 3.95419 13.3403 4.07093C13.1656 4.18768 12.9601 4.25 12.75 4.25C12.6451 4.24997 12.5425 4.28103 12.4553 4.33925L9.40166 6.375H6.97159C6.37909 6.3744 5.80344 6.57222 5.33646 6.9369C4.86948 7.30158 4.53805 7.81212 4.39503 8.38711C4.39083 8.40362 4.38746 8.42033 4.38494 8.43724L3.19361 16.3901C3.18962 16.4161 3.18758 16.4424 3.1875 16.4687V27.0937C3.1875 27.2346 3.24347 27.3698 3.3431 27.4694C3.44273 27.569 3.57785 27.625 3.71875 27.625H6.90625C7.04715 27.625 7.18227 27.569 7.2819 27.4694C7.38153 27.3698 7.4375 27.2346 7.4375 27.0937V26.5625H10.625C10.7659 26.5625 10.901 26.5065 11.0007 26.4069C11.1003 26.3073 11.1562 26.1721 11.1562 26.0312V25.5H14.3438V26.0312C14.3438 26.1721 14.3997 26.3073 14.4993 26.4069C14.599 26.5065 14.7341 26.5625 14.875 26.5625H17.265L17.0005 32.3821C16.9973 32.4539 17.0086 32.5255 17.0338 32.5927C17.059 32.66 17.0976 32.7214 17.1472 32.7733C17.1968 32.8252 17.2564 32.8665 17.3224 32.8947C17.3884 32.9229 17.4595 32.9375 17.5312 32.9375H30.2812C30.353 32.9375 30.4241 32.9229 30.4901 32.8947C30.5561 32.8665 30.6157 32.8252 30.6653 32.7733C30.7149 32.7214 30.7535 32.66 30.7787 32.5927C30.8039 32.5255 30.8152 32.4539 30.812 32.3821L29.75 9.01856ZM28.7809 11.0984C28.3676 10.98 28.0648 10.6783 27.8619 10.185C27.7812 9.98416 27.7214 9.77557 27.6834 9.5625H28.7111L28.7809 11.0984ZM28.6875 8.5H21.1248L21.1153 8.43718C21.1128 8.42031 21.1094 8.4036 21.1052 8.38704C21.0196 8.04355 20.866 7.72068 20.6537 7.43743H28.6875V8.5ZM23.9062 5.41974L25.3392 6.375H22.4733L23.9062 5.41974ZM17.4433 7.4375L17.1976 9.03536C17.168 9.22665 17.0825 9.40492 16.9519 9.5478C16.8213 9.69068 16.6514 9.79179 16.4636 9.83844C16.2757 9.8851 16.0783 9.87521 15.896 9.81002C15.7138 9.74484 15.5548 9.62726 15.4392 9.47205C15.9736 8.91371 16.3203 8.20242 16.431 7.4375H17.4433ZM10.1472 7.4375H15.3531C15.2309 8.03761 14.905 8.57703 14.4307 8.96447C13.9564 9.3519 13.3628 9.56353 12.7503 9.56353C12.1379 9.56353 11.5443 9.3519 11.07 8.96447C10.5957 8.57703 10.2698 8.03761 10.1475 7.4375H10.1472ZM12.75 5.41974L14.1829 6.375H11.3171L12.75 5.41974ZM9.06904 7.4375C9.1797 8.20244 9.52647 8.91373 10.0609 9.47205C9.94529 9.62726 9.78636 9.74484 9.6041 9.81002C9.42185 9.87521 9.2244 9.8851 9.03654 9.83844C8.84869 9.79179 8.6788 9.69068 8.54822 9.5478C8.41764 9.40492 8.33218 9.22665 8.30257 9.03536L8.05674 7.4375H9.06904ZM10.0938 25.5H7.4375V15.4062C7.4375 15.2653 7.38153 15.1302 7.2819 15.0306C7.18227 14.931 7.04715 14.875 6.90625 14.875C6.76535 14.875 6.63023 14.931 6.5306 15.0306C6.43097 15.1302 6.375 15.2653 6.375 15.4062V26.5625H4.25V16.5086L5.43143 8.62172C5.52135 8.28196 5.72121 7.98153 5.99983 7.7673C6.27844 7.55307 6.62014 7.43711 6.97159 7.4375H6.98169L7.25243 9.19726C7.31349 9.62788 7.5125 10.0271 7.8196 10.3351C8.12671 10.6431 8.52537 10.8432 8.95581 10.9055C9.34067 10.9683 9.73546 10.9199 10.0938 10.766V25.5ZM11.1562 24.4375V10.2651C11.6541 10.5021 12.1986 10.625 12.75 10.625C13.3014 10.625 13.8459 10.5021 14.3438 10.2651V24.4375H11.1562ZM15.4062 10.7658C15.7646 10.9197 16.1593 10.9681 16.5442 10.9053C16.9746 10.843 17.3732 10.6429 17.6803 10.335C17.9874 10.027 18.1865 9.62785 18.2476 9.19726L18.5183 7.4375H18.5284C18.8799 7.43711 19.2216 7.55307 19.5002 7.7673C19.7788 7.98153 19.9787 8.28196 20.0686 8.62172L21.25 16.5086V26.5625H19.125V15.4062C19.125 15.2653 19.069 15.1302 18.9694 15.0306C18.8698 14.931 18.7346 14.875 18.5938 14.875C18.4529 14.875 18.3177 14.931 18.2181 15.0306C18.1185 15.1302 18.0625 15.2653 18.0625 15.4062V25.5H15.4062V10.7658ZM23.375 31.875H18.0872L18.2849 27.5254C18.3748 27.5902 18.4829 27.625 18.5938 27.625H21.7812C21.9221 27.625 22.0573 27.569 22.1569 27.4694C22.2565 27.3698 22.3125 27.2346 22.3125 27.0937V16.4687C22.3125 16.4424 22.3106 16.4161 22.3067 16.39L21.2839 9.5625H23.375V31.875ZM24.4375 31.875V9.5625H26.6071C26.6542 9.90288 26.7412 10.2366 26.8661 10.5567C27.2424 11.4972 27.9319 12.0667 28.8306 12.1921L29.7253 31.875H24.4375Z" fill="#5E9C60"/>
</svg>
