<svg width="34" height="34" viewBox="0 0 34 34" fill="none" xmlns="http://www.w3.org/2000/svg">
<path d="M23.375 0.53125H10.625C9.92076 0.532041 9.24559 0.812149 8.74762 1.31012C8.24965 1.80809 7.96954 2.48326 7.96875 3.1875V30.8125C7.96954 31.5167 8.24965 32.1919 8.74762 32.6899C9.24559 33.1879 9.92076 33.468 10.625 33.4688H23.375C24.0792 33.468 24.7544 33.1879 25.2524 32.6899C25.7504 32.1919 26.0305 31.5167 26.0312 30.8125V3.1875C26.0305 2.48326 25.7504 1.80809 25.2524 1.31012C24.7544 0.812149 24.0792 0.532041 23.375 0.53125ZM20.602 1.59375L20.2833 3.1875H13.7168L13.3981 1.59375H20.602ZM24.9688 30.8125C24.9683 31.235 24.8002 31.6401 24.5014 31.9389C24.2026 32.2377 23.7975 32.4058 23.375 32.4062H10.625C10.2025 32.4058 9.79736 32.2377 9.49857 31.9389C9.19979 31.6401 9.03172 31.235 9.03125 30.8125V3.1875C9.03172 2.76496 9.19979 2.35986 9.49857 2.06107C9.79736 1.76229 10.2025 1.59422 10.625 1.59375H12.3144L12.7603 3.82294C12.7844 3.94337 12.8494 4.05174 12.9444 4.1296C13.0394 4.20746 13.1584 4.25001 13.2812 4.25H20.7188C20.8416 4.25001 20.9606 4.20746 21.0556 4.1296C21.1506 4.05174 21.2156 3.94337 21.2397 3.82294L21.6856 1.59375H23.375C23.7975 1.59422 24.2026 1.76229 24.5014 2.06107C24.8002 2.35986 24.9683 2.76496 24.9688 3.1875V30.8125Z" fill="#5E9C60"/>
<path d="M13.8125 30.2812H10.625C10.4841 30.2812 10.349 30.3372 10.2493 30.4368C10.1497 30.5365 10.0938 30.6716 10.0938 30.8125C10.0938 30.9534 10.1497 31.0885 10.2493 31.1882C10.349 31.2878 10.4841 31.3438 10.625 31.3438H13.8125C13.9534 31.3438 14.0885 31.2878 14.1882 31.1882C14.2878 31.0885 14.3438 30.9534 14.3438 30.8125C14.3438 30.6716 14.2878 30.5365 14.1882 30.4368C14.0885 30.3372 13.9534 30.2812 13.8125 30.2812Z" fill="#5E9C60"/>
<path d="M15.9375 30.2812H15.4062C15.2654 30.2812 15.1302 30.3372 15.0306 30.4368C14.931 30.5365 14.875 30.6716 14.875 30.8125C14.875 30.9534 14.931 31.0885 15.0306 31.1882C15.1302 31.2878 15.2654 31.3438 15.4062 31.3438H15.9375C16.0784 31.3438 16.2135 31.2878 16.3132 31.1882C16.4128 31.0885 16.4688 30.9534 16.4688 30.8125C16.4688 30.6716 16.4128 30.5365 16.3132 30.4368C16.2135 30.3372 16.0784 30.2812 15.9375 30.2812Z" fill="#5E9C60"/>
</svg>
