<svg width="34" height="34" viewBox="0 0 34 34" fill="none" xmlns="http://www.w3.org/2000/svg">
<g clip-path="url(#clip0)">
<path d="M25.2736 13.6425L27.2712 13.5157C27.2746 13.5154 27.2782 13.5152 27.2819 13.5149C28.7055 13.3946 29.9833 12.6473 30.7879 11.4642L32.3672 9.14276C33.7417 7.12172 34.2743 4.68067 33.8662 2.26952C33.7861 1.79597 33.5443 1.35958 33.1858 1.0412C32.8271 0.72255 32.3659 0.534378 31.887 0.511506C29.4481 0.394548 27.0941 1.21715 25.2565 2.82676L23.1455 4.676C22.0697 5.61816 21.4825 6.97877 21.5338 8.40956C21.5341 8.41294 21.5341 8.41658 21.5343 8.42022L21.6482 10.4223C21.6926 11.2028 21.407 11.9729 20.8661 12.5338L4.374 29.5093C3.9325 29.9707 3.70449 30.6035 3.73225 31.2915C3.76286 32.0489 4.10967 32.7927 4.66012 33.2816C5.15739 33.7232 5.84091 33.9748 6.52417 33.9748C6.59732 33.9748 6.67047 33.9719 6.74336 33.966C7.42844 33.9111 8.02843 33.6086 8.43465 33.1111L23.2741 14.6749C23.7662 14.0683 24.4951 13.6919 25.2736 13.6425ZM22.4819 14.0324L7.64374 32.4671C7.41702 32.7447 7.06839 32.9157 6.66217 32.9482C6.17891 32.9869 5.68345 32.8257 5.33638 32.5175C4.9893 32.209 4.77037 31.7354 4.75091 31.2502C4.73431 30.8424 4.86167 30.4751 5.10707 30.2189L21.5979 13.2446C22.3372 12.4781 22.7263 11.4284 22.6661 10.3643L22.5522 8.36746C22.5136 7.24752 22.974 6.18268 23.8163 5.4448L25.9273 3.59556C27.5657 2.16062 29.6652 1.42794 31.8385 1.53138C32.086 1.54334 32.3241 1.64054 32.5096 1.80532C32.695 1.96984 32.8198 2.19544 32.8613 2.44002C33.225 4.58971 32.7503 6.76565 31.5249 8.56732L29.9457 10.8891C29.3156 11.8154 28.3156 12.401 27.2012 12.4969L25.209 12.6232C24.1475 12.6908 23.154 13.2038 22.4819 14.0324Z" fill="#5E9C60"/>
<path d="M33.0585 29.3804L22.0006 19.289C21.7925 19.099 21.4704 19.1141 21.2805 19.3226C21.0911 19.531 21.1062 19.8541 21.3142 20.0441L32.3693 30.1331C32.6323 30.3767 32.7815 30.7356 32.7895 31.1437C32.7991 31.6292 32.609 32.1149 32.2809 32.4437C31.953 32.7722 31.4689 32.9633 30.9833 32.9534C30.5761 32.9453 30.2178 32.7959 29.9774 32.5352L20.1238 21.696C19.9342 21.4873 19.6118 21.4725 19.4037 21.6622C19.1957 21.8522 19.1806 22.1753 19.3703 22.3837L29.2262 33.2255C29.6594 33.6949 30.2762 33.9611 30.9634 33.9746C30.9813 33.9748 30.9989 33.9751 31.0168 33.9751C31.7553 33.9751 32.4938 33.6749 33.0015 33.166C33.5218 32.6446 33.8235 31.8813 33.8085 31.1236C33.795 30.4351 33.5296 29.8171 33.0585 29.3804Z" fill="#5E9C60"/>
<path d="M6.14982 13.5458C6.99339 14.3245 8.08935 14.7684 9.2359 14.796C9.23953 14.7962 9.24316 14.7962 9.24653 14.7962L11.2481 14.8025C12.0283 14.8048 12.7783 15.1367 13.3046 15.7114L14.1863 16.6811C14.2869 16.7918 14.4247 16.8479 14.5632 16.8479C14.6856 16.8479 14.8086 16.804 14.9061 16.7149C15.1144 16.5249 15.1295 16.2018 14.9398 15.9934L14.0568 15.0224C13.3378 14.2369 12.3152 13.7847 11.2514 13.781L9.25535 13.7748C8.36847 13.7522 7.52049 13.412 6.86343 12.816L1.06298 5.90716C1.00384 5.83646 1.00825 5.73406 1.07336 5.66882C1.11797 5.62386 1.17037 5.61736 1.19761 5.61736C1.22485 5.61736 1.27725 5.62386 1.32212 5.66882L6.60195 10.9592C7.12386 11.4822 7.97314 11.4822 8.49505 10.959L9.11554 10.3375V10.3373L10.2172 9.23344C10.2172 9.23344 10.2175 9.23344 10.2175 9.23318L10.2177 9.23292L10.838 8.61149C11.3599 8.08855 11.3599 7.23762 10.838 6.71469L5.55813 1.42454C5.48964 1.35593 5.48964 1.24391 5.55813 1.17529C5.62323 1.11005 5.72544 1.10563 5.796 1.16489L12.6914 6.97693C13.2864 7.63502 13.626 8.48491 13.6486 9.37327L13.6545 11.3735C13.6582 12.4391 14.1098 13.4637 14.8947 14.1857L15.8394 15.0478C16.0477 15.2378 16.3699 15.2227 16.5595 15.0143C16.7489 14.8056 16.7339 14.4828 16.5258 14.2928L15.5826 13.432C15.0076 12.9033 14.6766 12.1517 14.674 11.3701L14.6677 9.3647C14.6677 9.36106 14.6677 9.35742 14.6675 9.35378C14.64 8.20499 14.1969 7.10689 13.4198 6.26167C13.4052 6.24581 13.3897 6.23074 13.3731 6.21671L6.45202 0.383353C5.97368 -0.0200223 5.27953 0.0101269 4.83751 0.453008C4.37137 0.920061 4.37137 1.67977 4.83751 2.14656L10.1173 7.43697C10.2419 7.56172 10.2419 7.76471 10.1173 7.88947L9.85716 8.14989L3.97267 2.25416C3.77371 2.05455 3.45102 2.05455 3.25206 2.25416C3.0531 2.45351 3.0531 2.77684 3.25206 2.97618L9.13655 8.87217L8.75523 9.25398L2.87074 3.35825C2.67178 3.1589 2.34909 3.1589 2.15013 3.35825C1.95091 3.5576 1.95091 3.88092 2.15013 4.08027L8.03436 9.97626L7.77444 10.2369C7.64993 10.3617 7.44734 10.3617 7.32282 10.2369L2.04274 4.9468C1.81706 4.72068 1.51693 4.59593 1.19761 4.59593C0.878289 4.59593 0.578163 4.72068 0.352485 4.9468C-0.0895324 5.38968 -0.119363 6.08519 0.282966 6.56472L6.1052 13.499C6.11895 13.5157 6.13399 13.5313 6.14982 13.5458Z" fill="#5E9C60"/>
</g>
<defs>
<clipPath id="clip0">
<rect width="34" height="34" fill="white"/>
</clipPath>
</defs>
</svg>
