<svg width="34" height="34" viewBox="0 0 34 34" fill="none" xmlns="http://www.w3.org/2000/svg">
<g clip-path="url(#clip0)">
<path d="M7.0744 9.15157C7.0744 8.10387 6.22199 7.25153 5.17436 7.25153C4.71471 7.25153 4.28289 7.41287 3.94286 7.7038C3.74625 7.63672 3.53874 7.60204 3.32851 7.60204C2.28081 7.60204 1.42847 8.45439 1.42847 9.50209C1.42847 10.3109 1.94969 11.0245 2.68839 11.2908C2.91111 12.0977 3.65499 12.6872 4.52015 12.6872C5.56785 12.6872 6.4202 11.8349 6.4202 10.7872C6.4202 10.7225 6.41694 10.6581 6.41043 10.5942C6.82678 10.2368 7.0744 9.71099 7.0744 9.15157ZM5.61607 9.93982L5.26589 10.1367L5.38406 10.5206C5.41049 10.6066 5.42398 10.6963 5.42398 10.7871C5.42398 11.2854 5.01853 11.6907 4.52028 11.6907C4.04874 11.6907 3.65299 11.3228 3.61938 10.853L3.59075 10.4541L3.19513 10.3958C2.75607 10.331 2.42495 9.94673 2.42495 9.50196C2.42495 9.00365 2.8304 8.59826 3.32865 8.59826C3.49497 8.59826 3.65731 8.6437 3.79819 8.72965L4.18219 8.96393L4.45433 8.60577C4.62723 8.3782 4.88967 8.24775 5.17449 8.24775C5.6728 8.24775 6.07818 8.6532 6.07818 9.15144C6.07812 9.47751 5.9011 9.77961 5.61607 9.93982Z" fill="#5E9C60"/>
<path d="M12.3884 2.77834C12.3884 1.814 11.6039 1.02954 10.6396 1.02954C10.2268 1.02954 9.83849 1.17082 9.52929 1.42629C9.35692 1.37083 9.17612 1.3422 8.99292 1.3422C8.02859 1.3422 7.24406 2.12673 7.24406 3.091C7.24406 3.15051 7.24711 3.20996 7.25322 3.26914C7.00639 3.57728 6.8689 3.96261 6.8689 4.36254C6.8689 5.32688 7.65343 6.11134 8.61776 6.11134C8.91933 6.11134 9.21451 6.03296 9.47463 5.88676C9.66061 5.95232 9.85729 5.98627 10.056 5.98627C11.0203 5.98627 11.8048 5.20174 11.8048 4.23747C11.8048 4.18732 11.8027 4.13737 11.7985 4.08768C12.1689 3.75928 12.3884 3.28382 12.3884 2.77834ZM11.0074 3.43474L10.6572 3.63162L10.7754 4.01561C10.7975 4.08708 10.8086 4.16174 10.8086 4.23747C10.8086 4.65235 10.471 4.98991 10.0561 4.98991C9.92272 4.98991 9.79167 4.95444 9.67702 4.88736L9.3726 4.70907L9.10339 4.93697C8.96582 5.05341 8.7979 5.11499 8.61776 5.11499C8.20281 5.11499 7.86525 4.77742 7.86525 4.36254C7.86532 4.14773 7.95778 3.94248 8.11892 3.79954L8.35167 3.59309L8.26831 3.29332C8.24991 3.22716 8.24054 3.15908 8.24054 3.09106C8.24054 2.67618 8.57811 2.33862 8.99306 2.33862C9.13155 2.33862 9.26672 2.37641 9.38402 2.44795L9.76802 2.68216L10.0401 2.32394C10.184 2.1345 10.4026 2.02589 10.6397 2.02589C11.0546 2.02589 11.3922 2.36346 11.3922 2.77834C11.3922 3.04981 11.2447 3.30129 11.0074 3.43474Z" fill="#5E9C60"/>
<path d="M32.5736 6.46389C32.5736 5.49955 31.789 4.71509 30.8247 4.71509C30.412 4.71509 30.0237 4.85637 29.7144 5.1119C29.5421 5.05637 29.3612 5.02774 29.178 5.02774C28.2136 5.02774 27.4291 5.81227 27.4291 6.77654C27.4291 6.83606 27.4322 6.89551 27.4383 6.95476C27.1915 7.2629 27.054 7.64815 27.054 8.04809C27.054 9.01243 27.8385 9.79689 28.8028 9.79689C29.1044 9.79689 29.3996 9.71851 29.6597 9.57231C29.8457 9.63787 30.0424 9.67181 30.241 9.67181C31.2054 9.67181 31.9899 8.88728 31.9899 7.92301C31.9899 7.87293 31.9878 7.82291 31.9835 7.77329C32.354 7.44496 32.5736 6.96944 32.5736 6.46389ZM31.1924 7.12035L30.8421 7.3173L30.9604 7.70129C30.9824 7.7727 30.9935 7.84729 30.9935 7.92301C30.9935 8.3379 30.656 8.67546 30.241 8.67546C30.1076 8.67546 29.9766 8.63999 29.8619 8.5729L29.5575 8.39462L29.2883 8.62252C29.1507 8.73896 28.9828 8.80054 28.8027 8.80054C28.3877 8.80054 28.0502 8.46297 28.0502 8.04809C28.0502 7.83334 28.1426 7.62809 28.3038 7.48508L28.5365 7.27871L28.4532 6.979C28.4347 6.91271 28.4254 6.84463 28.4254 6.77654C28.4254 6.36166 28.763 6.0241 29.1779 6.0241C29.3164 6.0241 29.4516 6.06189 29.5688 6.13343L29.9528 6.36777L30.2249 6.00948C30.3689 5.81998 30.5874 5.71137 30.8246 5.71137C31.2395 5.71137 31.5771 6.04894 31.5771 6.46382C31.5772 6.73543 31.4297 6.98691 31.1924 7.12035Z" fill="#5E9C60"/>
<path d="M27.2721 2.16256C27.0138 1.78229 26.6376 1.51586 26.2059 1.39816C26.1509 1.19769 26.0631 1.00666 25.9449 0.832762C25.6597 0.412965 25.2281 0.129336 24.7295 0.0342175C24.2308 -0.0609011 23.7252 0.0438489 23.3054 0.329005C22.6365 0.783542 22.3391 1.6157 22.534 2.37638C21.9917 3.01405 21.9222 3.96065 22.4084 4.67629C22.6936 5.09609 23.1252 5.37972 23.6238 5.47484C23.7439 5.49775 23.8643 5.50911 23.9839 5.50911C24.3609 5.50905 24.7292 5.39659 25.0479 5.17998C25.1013 5.14372 25.1527 5.10486 25.202 5.06354C25.7317 5.20709 26.3056 5.11642 26.7684 4.80197H26.7684C27.6349 4.21319 27.861 3.02919 27.2721 2.16256ZM26.5883 3.39977C26.543 3.63683 26.4081 3.84215 26.2085 3.97785H26.2084C25.9387 4.16111 25.5893 4.18443 25.2967 4.03869L24.9371 3.85982L24.6859 4.17327C24.6296 4.24348 24.563 4.30492 24.488 4.356C24.2883 4.49164 24.0478 4.54152 23.8106 4.49615C23.5735 4.45085 23.3683 4.31601 23.2326 4.11634C22.9675 3.72631 23.0495 3.19219 23.4191 2.90033L23.733 2.6525L23.5589 2.29249C23.3657 1.89288 23.4975 1.40301 23.8654 1.15306C24.017 1.0501 24.192 0.996628 24.3714 0.996628C24.4283 0.996628 24.4856 1.00201 24.5427 1.0129C24.7798 1.0582 24.9851 1.19304 25.1208 1.39271C25.2142 1.53028 25.2679 1.69016 25.276 1.85495L25.2981 2.30431L25.7473 2.32802C26.0326 2.34317 26.288 2.48697 26.4481 2.72245C26.5837 2.92211 26.6335 3.1627 26.5883 3.39977Z" fill="#5E9C60"/>
<path d="M27.3939 13.9948C27.3939 13.7272 27.3317 13.4629 27.215 13.2247C27.3328 12.9865 27.3939 12.7246 27.3939 12.4522C27.3939 11.6062 26.79 10.8989 25.9907 10.7382C26.0826 10.5241 26.1322 10.2907 26.1322 10.0506C26.1322 9.08647 25.3479 8.30215 24.3838 8.30215C24.1209 8.30215 23.8647 8.36105 23.6317 8.47228C23.21 8.06853 22.6455 7.83731 22.0483 7.83731C21.8949 7.83731 21.7434 7.85238 21.5951 7.88233C21.4599 7.74766 21.3041 7.6365 21.1339 7.55283C21.4806 7.202 21.6831 6.72375 21.6831 6.21774C21.6831 5.17019 20.8309 4.31787 19.7832 4.31787C19.3241 4.31787 18.8925 4.47924 18.5524 4.77016C18.3559 4.70316 18.1485 4.66856 17.9384 4.66856C17.5652 4.66856 17.2086 4.77614 16.905 4.97363C16.2712 4.37525 15.2835 4.27431 14.5334 4.78391C13.892 5.21979 13.5924 6.00331 13.7409 6.73796C12.998 6.87589 12.4185 7.48529 12.3256 8.24291C12.1117 8.18109 11.8683 8.14815 11.5982 8.17133C11.1858 8.20639 10.8207 8.34432 10.5364 8.5681C10.3624 8.51146 10.1795 8.48231 9.99425 8.48231C9.0301 8.48231 8.24579 9.26669 8.24579 10.2308C8.24579 10.2903 8.24877 10.3495 8.25482 10.4084C8.00812 10.7165 7.87059 11.1017 7.87059 11.5018C7.87059 11.7904 7.94032 12.0654 8.06629 12.3085C7.06994 12.3658 6.27686 13.1943 6.27686 14.2045C6.27686 14.6794 6.45456 15.129 6.76228 15.4726C6.27752 16.069 6.0374 16.8365 6.10015 17.6065L8.80944 34.0012H24.3963L27.1006 17.6473L27.1056 17.6065C27.1534 17.0206 27.0257 16.4362 26.7484 15.9275C26.789 15.7693 26.81 15.6086 26.81 15.453C26.81 15.403 26.8078 15.3532 26.8037 15.3037C27.1744 14.9753 27.3939 14.4999 27.3939 13.9948ZM9.65465 33.0047L7.09165 17.5058C7.05154 16.9496 7.23735 16.4183 7.61593 16.0075C7.99889 15.592 8.52097 15.3633 9.08608 15.3633H9.10687C10.1858 15.3633 11.0634 16.2078 11.1049 17.2858L11.1053 17.2959L11.11 17.356C11.1099 17.3966 11.1107 17.4373 11.1123 17.478L12.3453 33.0047H9.65465ZM13.3447 33.0047L12.1064 17.3215C12.116 16.8172 12.3118 16.3432 12.6648 15.9763C13.0452 15.581 13.5569 15.3633 14.1056 15.3633C15.2081 15.3633 16.105 16.2603 16.105 17.3627V33.0047H13.3447ZM17.1012 33.0048V17.3628C17.1012 16.2603 17.9982 15.3633 19.1007 15.3633C19.6494 15.3633 20.1611 15.5811 20.5415 15.9764C20.8945 16.3432 21.0904 16.8172 21.0999 17.3216L19.8615 33.0048H17.1012ZM26.1146 17.5058L23.5516 33.0047H20.8609L22.0928 17.4983L22.094 17.478C22.0956 17.4371 22.0964 17.3963 22.0963 17.3557L22.1002 17.3058L22.1014 17.2858C22.1429 16.2077 23.0205 15.3632 24.0994 15.3632H24.1202C24.6853 15.3632 25.2074 15.592 25.5904 16.0075C25.9689 16.4183 26.1547 16.9496 26.1146 17.5058ZM26.0128 14.6507L25.707 14.8229C25.235 14.5285 24.6848 14.3673 24.1201 14.3673H24.0994C23.0538 14.3673 22.1344 14.8968 21.5986 15.7078C21.4994 15.559 21.3861 15.4178 21.2591 15.2858C20.6892 14.6935 19.9226 14.3673 19.1005 14.3673C18.059 14.3673 17.1399 14.9016 16.603 15.7106C16.0661 14.9017 15.147 14.3673 14.1054 14.3673C13.2835 14.3673 12.5169 14.6935 11.9469 15.2858C11.8199 15.4178 11.7066 15.559 11.6074 15.7078C11.0715 14.8968 10.1522 14.3673 9.10667 14.3673H9.08588C8.52602 14.3673 7.98043 14.5258 7.51114 14.8153C7.36033 14.6507 7.27301 14.4337 7.27301 14.2043C7.27301 13.7063 7.67841 13.3012 8.17679 13.3012C8.343 13.3012 8.50537 13.3465 8.64621 13.4323L9.0297 13.6659L9.30164 13.3085C9.36147 13.2299 9.43425 13.1613 9.51785 13.1047L10.368 12.5292L9.38976 12.2178C9.07699 12.1182 8.86681 11.8304 8.86681 11.5016C8.86681 11.2867 8.95918 11.0815 9.12028 10.9386L9.35323 10.732L9.26943 10.432C9.25123 10.3668 9.242 10.2991 9.242 10.2307C9.242 9.81587 9.57954 9.47833 9.99438 9.47833C10.1331 9.47833 10.2682 9.51598 10.385 9.58737L10.769 9.82184L11.0411 9.46345C11.2056 9.24697 11.4809 9.18103 11.6829 9.16376C12.1247 9.12658 12.4473 9.38828 12.6399 9.54506C12.6996 9.59347 12.751 9.63538 12.8071 9.66938L13.1944 9.90366L13.462 9.54394L13.7059 9.22306L13.4687 8.92065C13.364 8.78704 13.3086 8.62674 13.3086 8.45701C13.3086 8.04489 13.6416 7.70908 14.0528 7.7047L14.3334 7.7207L14.4937 7.51205C14.5401 7.45169 14.5918 7.39876 14.6474 7.35487L14.9608 7.10718L14.7869 6.74746C14.5937 6.34763 14.7254 5.85775 15.0932 5.6078C15.5053 5.32764 16.0684 5.43535 16.348 5.84706C16.3646 5.8715 16.3811 5.89952 16.3972 5.93027L16.7525 6.61126L17.2292 6.00896C17.4023 5.79022 17.6609 5.66471 17.9384 5.66471C18.1046 5.66471 18.2669 5.71007 18.4078 5.79586L18.7911 6.02941L19.0631 5.67222C19.2363 5.44464 19.4988 5.31409 19.7831 5.31409C20.2814 5.31409 20.6869 5.7195 20.6869 6.21787C20.6869 6.54379 20.51 6.84554 20.2253 7.00538L19.876 7.20141L19.9926 7.58463C20.0183 7.66897 20.0317 7.75563 20.0327 7.84262C20.0319 7.8559 20.0315 7.86938 20.0315 7.88326V8.31921L20.4636 8.37685C20.6826 8.40607 20.877 8.53058 20.9971 8.71851L21.2148 9.05931L21.593 8.9162C21.738 8.86135 21.8912 8.83353 22.0482 8.83353C22.4808 8.83353 22.883 9.04815 23.1241 9.40767L23.4469 9.88925L23.8743 9.49745C24.0144 9.36902 24.1953 9.29837 24.3838 9.29837C24.7987 9.29837 25.1361 9.63591 25.1361 10.0507C25.1361 10.3219 24.9886 10.5734 24.7511 10.7071L24.3991 10.9052L24.5202 11.2905C24.5319 11.3275 24.5404 11.3695 24.5458 11.4156L24.6316 12.1552L25.2824 11.7936C25.3923 11.7326 25.5178 11.7003 25.6454 11.7003C26.0603 11.7003 26.3978 12.0375 26.3978 12.452C26.3978 12.6222 26.3424 12.7827 26.2377 12.9164L25.9962 13.2242L26.2382 13.5314C26.3427 13.6641 26.3979 13.8242 26.3979 13.9944C26.3979 14.2656 26.2503 14.5171 26.0128 14.6507Z" fill="#5E9C60"/>
<path d="M18.2963 9.46315C18.1487 9.46315 18.0045 9.48494 17.8668 9.52738C17.5199 9.15202 17.0294 8.93176 16.5029 8.93176C15.6133 8.93176 14.8677 9.55953 14.6855 10.3952C13.7018 10.4425 12.916 11.2577 12.916 12.2529H13.9124C13.9124 11.7768 14.2998 11.3894 14.7759 11.3894C14.8541 11.3894 14.934 11.4009 15.0134 11.4236L15.7284 11.628L15.6454 10.8891C15.6414 10.8529 15.6394 10.821 15.6394 10.7916C15.6394 10.3155 16.0268 9.92812 16.5029 9.92812C16.825 9.92812 17.1182 10.1062 17.2681 10.3927L17.5432 10.9189L18.0136 10.5565C18.071 10.5122 18.1667 10.4595 18.2963 10.4595C18.5527 10.4595 18.7613 10.6681 18.7613 10.9245H19.7576C19.7576 10.1187 19.1021 9.46315 18.2963 9.46315Z" fill="#5E9C60"/>
<path d="M21.6162 11.2892C21.1288 11.2892 20.669 11.4988 20.3465 11.8483C20.1691 11.7861 19.9817 11.7541 19.7895 11.7541C18.8555 11.7541 18.0957 12.514 18.0957 13.448H19.0921C19.0921 13.0634 19.4049 12.7505 19.7895 12.7505C19.9403 12.7505 20.0846 12.7989 20.2066 12.8907L20.6951 13.2574L20.9562 12.7052C21.0767 12.4503 21.3358 12.2855 21.6162 12.2855C22.019 12.2855 22.3468 12.6133 22.3468 13.0162H23.3432C23.3431 12.0639 22.5685 11.2892 21.6162 11.2892Z" fill="#5E9C60"/>
<path d="M9.07114 17.269L8.08813 17.4316L8.72793 21.2994L9.71093 21.1368L9.07114 17.269Z" fill="#5E9C60"/>
<path d="M10.6441 26.7809L9.66113 26.9434L10.0601 29.357L11.0431 29.1945L10.6441 26.7809Z" fill="#5E9C60"/>
<path d="M18.2011 28.7448L18.0984 30.0374L19.0917 30.1163L19.1943 28.8238L18.2011 28.7448Z" fill="#5E9C60"/>
<path d="M18.8128 21.042L18.512 24.8285L19.5052 24.9074L19.8061 21.1209L18.8128 21.042Z" fill="#5E9C60"/>
<path d="M19.1086 17.3137L18.9336 19.5162L19.9269 19.5951L20.1018 17.3926L19.1086 17.3137Z" fill="#5E9C60"/>
</g>
<defs>
<clipPath id="clip0">
<rect width="34" height="34" fill="white"/>
</clipPath>
</defs>
</svg>
