<svg width="34" height="34" viewBox="0 0 34 34" fill="none" xmlns="http://www.w3.org/2000/svg">
<g clip-path="url(#clip0)">
<path d="M14.8879 7.70823C15.0655 7.70823 15.2329 7.62437 15.3391 7.48194C15.4455 7.33951 15.4785 7.15556 15.4279 6.98509C15.0243 5.60672 14.3267 4.33228 13.3827 3.25004C12.6222 2.44084 11.4902 2.09439 10.4071 2.33938C10.2576 2.39657 10.1396 2.5148 10.0824 2.66438C10.0513 2.74852 10.0282 2.83541 10.0137 2.92394C9.99635 3.02898 9.987 3.13511 9.98535 3.24152V3.25059C9.99223 4.14861 10.3541 5.00758 10.9923 5.63971C12.0745 6.58282 13.3481 7.28012 14.7256 7.68349C14.7784 7.69916 14.8329 7.70768 14.8879 7.70823ZM11.7907 4.84233C11.5672 4.61852 11.3918 4.35098 11.2749 4.05677V4.05127C11.2502 3.98886 11.2287 3.92617 11.2103 3.86595C11.2007 3.83323 11.1938 3.80244 11.1855 3.77027C11.177 3.7381 11.1696 3.7139 11.1641 3.68585C11.1583 3.65753 11.1572 3.64626 11.1534 3.62619C11.1369 3.54205 11.1253 3.45709 11.119 3.37158C11.6744 3.41364 12.196 3.65341 12.5898 4.04743C13.1496 4.68038 13.6008 5.4016 13.925 6.18221C13.1435 5.85693 12.4212 5.40407 11.788 4.84233H11.7907Z" fill="#5E9C60"/>
<path d="M32.1696 8.09677H23.4774C23.8532 7.83995 24.2063 7.55097 24.5321 7.23339C26.5464 5.213 26.6124 2.14968 25.3256 0.862866C24.0388 -0.423942 20.9766 -0.359052 18.954 1.6575C18.1269 2.55771 17.4549 3.58881 16.9655 4.70899C16.4761 3.58799 15.8035 2.55634 14.9756 1.65585C12.9552 -0.358502 9.89217 -0.424492 8.60509 0.862317C7.31773 2.14913 7.38427 5.21244 9.3989 7.23339C9.725 7.55097 10.078 7.83995 10.4536 8.09677H1.76136C1.45038 8.09677 1.19824 8.3489 1.19824 8.65988V14.291C1.19824 14.602 1.45038 14.8542 1.76136 14.8542H2.88759V31.1845C2.88952 32.7386 4.1491 33.9982 5.70317 34.0001H28.2278C29.7822 33.9982 31.0418 32.7386 31.0434 31.1845V14.8542H32.1696C32.4806 14.8542 32.7328 14.602 32.7328 14.291V8.65988C32.7328 8.3489 32.4806 8.09677 32.1696 8.09677ZM19.7508 2.45323C21.3692 0.83977 23.7298 0.858467 24.5299 1.6586C25.33 2.45873 25.3493 4.81815 23.7358 6.43711C22.997 7.12011 22.1534 7.6802 21.2373 8.09677H17.8723C17.8723 8.08494 17.8723 8.07202 17.8723 8.0602C17.8723 7.93179 17.8627 7.80174 17.8503 7.67085C17.8456 7.62769 17.8407 7.58479 17.8357 7.5408C17.8228 7.43274 17.8069 7.32496 17.7876 7.21772C17.7816 7.18005 17.7753 7.14211 17.7687 7.10499C17.7417 6.96476 17.7123 6.82673 17.6785 6.69337C17.6741 6.67413 17.6688 6.65736 17.6644 6.63701C17.6345 6.52043 17.6037 6.41182 17.5721 6.29936C17.5677 6.28396 17.5635 6.26719 17.5591 6.25179C18.0205 4.8484 18.7668 3.55499 19.7508 2.45323ZM19.218 13.7279H14.713V9.223H19.218V13.7279ZM10.1957 6.43766C8.582 4.8187 8.60097 2.45928 9.40137 1.6586C10.2015 0.857917 12.5609 0.83922 14.1788 2.45158C15.2033 3.59926 15.9712 4.95261 16.4313 6.42089C16.4948 6.61859 16.5437 6.80831 16.5899 6.99253C16.6028 7.04532 16.6136 7.09647 16.6248 7.14843C16.6553 7.28591 16.6798 7.41707 16.6982 7.54272C16.7043 7.58534 16.7123 7.62934 16.7172 7.67085C16.7351 7.81136 16.7447 7.95296 16.7461 8.09457H12.6937C11.7781 7.67883 10.9348 7.11956 10.1957 6.43766ZM2.32447 9.223H13.5868V13.7279H2.32447V9.223ZM4.01382 31.1845V14.8542H14.713V32.8739H5.70317C4.77024 32.8739 4.01382 32.1175 4.01382 31.1845ZM15.8393 32.8739V14.8542H18.0917V32.8739H15.8393ZM29.9172 31.1845C29.9172 32.1175 29.161 32.8739 28.2278 32.8739H19.218V14.8542H29.9172V31.1845ZM31.6065 13.7279H20.3442V9.223H31.6065V13.7279Z" fill="#5E9C60"/>
<path d="M19.0419 7.70978C19.0961 7.70978 19.15 7.70209 19.2019 7.68669C20.5811 7.2836 21.8561 6.58493 22.9381 5.63907C23.7393 4.87276 24.0847 3.74542 23.8504 2.66181C23.7938 2.51278 23.6758 2.3951 23.5268 2.33818C22.4432 2.10392 21.3158 2.44927 20.5495 3.2505C19.6039 4.33246 18.9053 5.60745 18.5019 6.98664C18.4516 7.15712 18.4843 7.34134 18.5907 7.48349C18.6971 7.62592 18.8643 7.70978 19.0419 7.70978ZM21.3458 4.04678C21.7401 3.65304 22.2622 3.41355 22.8177 3.37093C22.7756 3.92662 22.5358 4.44904 22.1421 4.84333C21.5086 5.407 20.7852 5.86068 20.0021 6.18596C20.3276 5.40288 20.7819 4.68001 21.3458 4.04678Z" fill="#5E9C60"/>
</g>
<defs>
<clipPath id="clip0">
<rect width="34" height="34" fill="white"/>
</clipPath>
</defs>
</svg>
