<svg width="34" height="34" viewBox="0 0 34 34" fill="none" xmlns="http://www.w3.org/2000/svg">
<path d="M20.1877 6.90625H18.594V5.3125C18.594 5.1716 18.538 5.03648 18.4384 4.93685C18.3388 4.83722 18.2036 4.78125 18.0627 4.78125H15.9377C15.7968 4.78125 15.6617 4.83722 15.5621 4.93685C15.4625 5.03648 15.4065 5.1716 15.4065 5.3125V6.90625H13.8127C13.6718 6.90625 13.5367 6.96222 13.4371 7.06185C13.3375 7.16148 13.2815 7.2966 13.2815 7.4375V9.5625C13.2815 9.7034 13.3375 9.83852 13.4371 9.93815C13.5367 10.0378 13.6718 10.0937 13.8127 10.0937H15.4065V11.6875C15.4065 11.8284 15.4625 11.9635 15.5621 12.0631C15.6617 12.1628 15.7968 12.2187 15.9377 12.2187H18.0627C18.2036 12.2187 18.3388 12.1628 18.4384 12.0631C18.538 11.9635 18.594 11.8284 18.594 11.6875V10.0937H20.1877C20.3286 10.0937 20.4638 10.0378 20.5634 9.93815C20.663 9.83852 20.719 9.7034 20.719 9.5625V7.4375C20.719 7.2966 20.663 7.16148 20.5634 7.06185C20.4638 6.96222 20.3286 6.90625 20.1877 6.90625ZM19.6565 9.03125H18.0627C17.9218 9.03125 17.7867 9.08722 17.6871 9.18685C17.5875 9.28648 17.5315 9.4216 17.5315 9.5625V11.1562H16.469V9.5625C16.469 9.4216 16.413 9.28648 16.3134 9.18685C16.2138 9.08722 16.0786 9.03125 15.9377 9.03125H14.344V7.96875H15.9377C16.0786 7.96875 16.2138 7.91278 16.3134 7.81315C16.413 7.71352 16.469 7.5784 16.469 7.4375V5.84375H17.5315V7.4375C17.5315 7.5784 17.5875 7.71352 17.6871 7.81315C17.7867 7.91278 17.9218 7.96875 18.0627 7.96875H19.6565V9.03125Z" fill="#5E9C60"/>
<path d="M31.7318 9.75372C31.7426 9.66025 31.7479 9.56624 31.7477 9.47215C31.7452 8.98519 31.5762 8.51374 31.269 8.13595C30.9617 7.75815 30.5346 7.49671 30.0584 7.39497C29.5197 7.29243 28.9622 7.39834 28.4986 7.69126C28.0351 7.98418 27.7001 8.44225 27.5615 8.97278L25.224 15.6984C25.1894 15.7122 25.1556 15.7281 25.1231 15.7462L20.4268 18.4981C19.7082 18.9202 19.1121 19.5225 18.6975 20.2455C18.2829 20.9685 18.0641 21.7872 18.0627 22.6206V27.625C17.9218 27.625 17.7867 27.6809 17.6871 27.7806C17.5875 27.8802 17.5315 28.0153 17.5315 28.1562V32.4062C17.5315 32.5471 17.5875 32.6822 17.6871 32.7819C17.7867 32.8815 17.9218 32.9375 18.0627 32.9375H25.5002C25.6411 32.9375 25.7763 32.8815 25.8759 32.7819C25.9755 32.6822 26.0315 32.5471 26.0315 32.4062V28.1562C26.0315 28.0153 25.9755 27.8802 25.8759 27.7806C25.7763 27.6809 25.6411 27.625 25.5002 27.625V26.4562C25.5012 26.2318 25.549 26.0101 25.6405 25.8052C25.7319 25.6003 25.8651 25.4168 26.0315 25.2662L29.6227 22.0734C30.0156 21.7297 30.2968 21.2765 30.4302 20.7718L32.7359 12.1497C32.7851 11.9696 32.8101 11.7838 32.8102 11.5972C32.8082 11.2222 32.7074 10.8545 32.5181 10.5309C32.3288 10.2073 32.0576 9.93925 31.7318 9.75372ZM28.5762 9.28622C28.6414 9.01148 28.8078 8.77141 29.0421 8.61388C29.2764 8.45634 29.5615 8.3929 29.8406 8.43622C30.0787 8.48609 30.2925 8.61617 30.4462 8.80472C30.5999 8.99327 30.6843 9.22887 30.6852 9.47215V9.48278C30.2107 9.49159 29.752 9.65515 29.379 9.94859C29.006 10.242 28.739 10.6493 28.6187 11.1084L27.1365 15.6825C26.9121 15.576 26.6715 15.5078 26.4246 15.4806L28.5762 9.28622ZM24.969 31.875H18.594V28.6875H24.969V31.875ZM31.7106 11.8734L29.3996 20.5009C29.3197 20.8007 29.1534 21.0704 28.9215 21.2765L25.3249 24.4693C25.0466 24.7203 24.8239 25.0267 24.6711 25.3689C24.5183 25.7111 24.4388 26.0815 24.4377 26.4562V27.625H19.1252V22.6206C19.1279 21.9724 19.2986 21.336 19.6208 20.7736C19.943 20.2112 20.4056 19.742 20.9634 19.4118L25.6543 16.6653C25.7753 16.5948 25.9089 16.5489 26.0477 16.5303C26.1864 16.5116 26.3275 16.5206 26.4627 16.5566C26.598 16.5927 26.7248 16.6551 26.8359 16.7403C26.9469 16.8255 27.0401 16.9318 27.1099 17.0531C27.2479 17.2986 27.286 17.5878 27.2162 17.8606C27.1793 17.9953 27.1162 18.1214 27.0305 18.2317C26.9448 18.342 26.8382 18.4343 26.7168 18.5034L23.6727 20.2618C23.5571 20.3353 23.4743 20.4507 23.4417 20.5838C23.4092 20.7169 23.4292 20.8574 23.4978 20.976C23.5664 21.0947 23.6781 21.1822 23.8097 21.2204C23.9413 21.2586 24.0826 21.2444 24.204 21.1809L27.2481 19.4225C27.4914 19.2844 27.7046 19.0991 27.8752 18.8774C28.0458 18.6557 28.1704 18.4021 28.2415 18.1315C28.3861 17.588 28.3097 17.0093 28.029 16.5218L27.9971 16.474L29.6387 11.4112C29.7039 11.1365 29.8703 10.8964 30.1046 10.7389C30.3389 10.5813 30.624 10.5179 30.9031 10.5612C31.1412 10.6111 31.355 10.7412 31.5087 10.9297C31.6624 11.1183 31.7468 11.3539 31.7477 11.5972C31.7495 11.6906 31.737 11.7838 31.7106 11.8734Z" fill="#5E9C60"/>
<path d="M15.9374 27.625V22.6206C15.9361 21.7872 15.7173 20.9685 15.3027 20.2455C14.8881 19.5225 14.292 18.9202 13.5734 18.4981L8.87713 15.7409C8.84525 15.725 8.80807 15.7143 8.77619 15.6984L6.45463 9.00997C6.3197 8.4717 5.98474 8.00508 5.51792 7.70505C5.0511 7.40502 4.4875 7.29414 3.94182 7.39497C3.4656 7.49672 3.03846 7.75816 2.7312 8.13595C2.42394 8.51374 2.25502 8.9852 2.25244 9.47216C2.2523 9.56624 2.25762 9.66025 2.26838 9.75372C1.9426 9.93926 1.67141 10.2073 1.4821 10.5309C1.29279 10.8545 1.19203 11.2223 1.18994 11.5972C1.19097 11.7834 1.21416 11.9689 1.259 12.1497L3.56994 20.7665C3.702 21.2733 3.98334 21.7286 4.37744 22.0734L7.96338 25.2662C8.13143 25.4157 8.26607 25.599 8.35853 25.804C8.45098 26.0091 8.49917 26.2313 8.49994 26.4562V27.625C8.35905 27.625 8.22392 27.6809 8.12429 27.7806C8.02466 27.8802 7.96869 28.0153 7.96869 28.1562V32.4062C7.96869 32.5471 8.02466 32.6822 8.12429 32.7819C8.22392 32.8815 8.35905 32.9375 8.49994 32.9375H15.9374C16.0783 32.9375 16.2135 32.8815 16.3131 32.7819C16.4127 32.6822 16.4687 32.5471 16.4687 32.4062V28.1562C16.4687 28.0153 16.4127 27.8802 16.3131 27.7806C16.2135 27.6809 16.0783 27.625 15.9374 27.625ZM3.31494 9.47216C3.3156 9.22961 3.39922 8.99459 3.55191 8.80614C3.7046 8.61769 3.91718 8.48715 4.15432 8.43622C4.44101 8.39461 4.73284 8.46292 4.97127 8.62746C5.20971 8.792 5.37712 9.0406 5.43994 9.32341L7.57557 15.4806C7.32869 15.5078 7.08809 15.576 6.86369 15.6825L5.39213 11.135C5.27237 10.6713 5.00487 10.2593 4.63009 9.96118C4.25532 9.66309 3.79365 9.49515 3.31494 9.48278V9.47216ZM8.66994 24.4693L5.07869 21.2765C4.8455 21.0693 4.67909 20.7975 4.60057 20.4956L2.28432 11.8734C2.26233 11.783 2.25162 11.6902 2.25244 11.5972C2.2531 11.3546 2.33672 11.1196 2.48941 10.9311C2.6421 10.7427 2.85468 10.6122 3.09182 10.5612C3.37649 10.5185 3.66679 10.5851 3.90432 10.7478C4.14185 10.9104 4.30899 11.1569 4.37213 11.4378L6.00307 16.474L5.97119 16.5218C5.69048 17.0093 5.61408 17.588 5.75869 18.1315C5.82982 18.4021 5.95435 18.6557 6.12497 18.8774C6.29558 19.0991 6.50881 19.2844 6.75213 19.4225L9.79619 21.1809C9.9176 21.2444 10.0589 21.2586 10.1905 21.2204C10.3221 21.1822 10.4338 21.0947 10.5024 20.976C10.5709 20.8574 10.591 20.7169 10.5584 20.5838C10.5258 20.4507 10.4431 20.3354 10.3274 20.2618L7.28338 18.5034C7.16198 18.4343 7.05538 18.342 6.96969 18.2317C6.884 18.1214 6.82091 17.9953 6.784 17.8606C6.71421 17.5878 6.75227 17.2986 6.89025 17.0531C6.95967 16.9321 7.05224 16.8259 7.16269 16.7406C7.27315 16.6553 7.39931 16.5927 7.53399 16.5562C7.66866 16.5196 7.80921 16.51 7.9476 16.5278C8.086 16.5457 8.21953 16.5906 8.34057 16.66L13.0368 19.4118C13.5946 19.742 14.0572 20.2112 14.3794 20.7736C14.7016 21.336 14.8723 21.9724 14.8749 22.6206V27.625H9.56244V26.4562C9.56154 26.0809 9.48159 25.7101 9.32782 25.3677C9.17404 25.0254 8.94988 24.7193 8.66994 24.4693ZM15.4062 31.875H9.03119V28.6875H15.4062V31.875Z" fill="#5E9C60"/>
<path d="M24.5158 2.72638C24.0226 2.23233 23.4368 1.84039 22.792 1.57299C22.1472 1.30559 21.4559 1.16798 20.7579 1.16803C20.0598 1.16808 19.3686 1.30579 18.7238 1.57328C18.079 1.84077 17.4933 2.23279 17.0002 2.72691C16.5071 2.23278 15.9214 1.84076 15.2767 1.57328C14.6319 1.3058 13.9407 1.16812 13.2426 1.16812C12.5446 1.16812 11.8534 1.3058 11.2086 1.57328C10.5639 1.84076 9.97818 2.23278 9.48511 2.72691C8.4908 3.72336 7.93237 5.07356 7.93237 6.48125C7.93237 7.88894 8.4908 9.23914 9.48511 10.2356L16.6251 17.3756C16.7247 17.4752 16.8598 17.5311 17.0007 17.5311C17.1416 17.5311 17.2767 17.4752 17.3763 17.3756L24.5163 10.2356C25.5106 9.23898 26.0689 7.88865 26.0688 6.48088C26.0687 5.0731 25.5102 3.72285 24.5158 2.72638ZM17.0002 16.2488L10.2358 9.48441C9.6419 8.88973 9.23768 8.13233 9.0742 7.30796C8.91072 6.48358 8.99532 5.62924 9.31732 4.85295C9.63931 4.07665 10.1842 3.41324 10.8832 2.94659C11.5822 2.47995 12.4038 2.23101 13.2442 2.23125C13.8025 2.22933 14.3556 2.3386 14.8712 2.55267C15.3868 2.76674 15.8546 3.08133 16.2474 3.47809L16.6246 3.85528C16.7242 3.95488 16.8593 4.01082 17.0002 4.01082C17.141 4.01082 17.2761 3.95488 17.3758 3.85528L17.754 3.47703C18.1484 3.08192 18.6169 2.76845 19.1326 2.55458C19.6482 2.3407 20.201 2.23062 20.7593 2.23062C21.3176 2.23062 21.8704 2.3407 22.3861 2.55458C22.9017 2.76845 23.3702 3.08192 23.7646 3.47703C24.5604 4.27389 25.0073 5.35402 25.0073 6.48019C25.0073 7.60635 24.5604 8.68648 23.7646 9.48334L17.0002 16.2488Z" fill="#5E9C60"/>
</svg>
