<svg width="34" height="34" viewBox="0 0 34 34" fill="none" xmlns="http://www.w3.org/2000/svg">
<g clip-path="url(#clip0)">
<path d="M30.1524 12.6338H27.992V9.22461C27.9891 6.98969 26.1782 5.17847 23.943 5.17592H18.2628C17.6108 5.17624 16.9808 4.94024 16.4893 4.51238L14.6794 2.93684C13.9787 2.32734 13.0818 1.99158 12.1531 1.99158H4.0487C1.81377 1.99414 0.00255822 3.80535 0 6.04027V27.3863C0.00287799 29.8633 1.94137 31.9064 4.41484 32.0394V32.0458H27.3531C29.1848 32.0423 30.7616 30.7507 31.1252 28.9552L33.9223 17.2488L33.9271 17.2267C34.1503 16.0976 33.8557 14.9278 33.1251 14.0385C32.394 13.1492 31.3036 12.6338 30.1524 12.6338ZM1.1464 27.3863V6.04027C1.14832 4.43787 2.44661 3.13958 4.04902 3.13766H12.1534C12.8055 3.13766 13.4354 3.37333 13.9272 3.80151L15.7372 5.37674C16.4375 5.98623 17.3345 6.322 18.2628 6.322H23.943C25.5454 6.32392 26.844 7.62253 26.8459 9.22493V12.6338H26.3013C26.0234 11.1487 24.728 10.0714 23.2171 10.0691H23.0278C22.7493 8.5534 21.4289 7.45177 19.8876 7.44953H6.70764C4.58368 7.45209 2.86232 9.17313 2.86009 11.2971V30.4022C1.79779 29.7684 1.14704 28.6229 1.1464 27.3863ZM23.2171 11.2152C24.0958 11.2162 24.8707 11.7921 25.1246 12.6338H15.3915C13.6113 12.6283 12.062 13.8492 11.6504 15.5811L8.0846 28.1727L8.07821 28.1967C7.94422 28.7662 7.67017 29.2932 7.28068 29.7297V13.9167C7.28228 12.4253 8.49104 11.2168 9.98216 11.2152H23.2171ZM4.00617 30.8377V11.2971C4.00776 9.80565 5.21652 8.59721 6.70764 8.59561H19.8876C20.7967 8.59657 21.5968 9.19647 21.8523 10.0691H9.98216C7.8582 10.0714 6.13716 11.7927 6.1346 13.9167V30.5774C5.46947 30.8834 4.72534 30.9742 4.00617 30.8377ZM32.805 16.9939L30.0082 28.6993L30.0034 28.7217C29.7511 29.9861 28.6421 30.8972 27.3531 30.8997H7.72709C8.45554 30.2627 8.96719 29.4147 9.19071 28.4733L12.7565 15.882L12.7629 15.8581C13.0485 14.6381 14.1383 13.7763 15.3915 13.7798H30.1524C30.9589 13.7798 31.7228 14.1399 32.2361 14.7619C32.7493 15.3838 32.9578 16.2025 32.805 16.9942V16.9939Z" fill="#5E9C60"/>
</g>
<defs>
<clipPath id="clip0">
<rect width="34" height="34" fill="white"/>
</clipPath>
</defs>
</svg>
