<svg width="34" height="34" viewBox="0 0 34 34" fill="none" xmlns="http://www.w3.org/2000/svg">
<path d="M23.3911 17.85C23.114 17.8492 22.8396 17.9034 22.5836 18.0094C22.3277 18.1154 22.0953 18.2711 21.8999 18.4676L21.2501 19.1175L20.6004 18.4678C20.4045 18.2719 20.172 18.1166 19.9162 18.0106C19.6603 17.9046 19.386 17.85 19.1091 17.85C18.8321 17.85 18.5579 17.9045 18.302 18.0105C18.0461 18.1165 17.8136 18.2718 17.6178 18.4677C17.4219 18.6635 17.2666 18.896 17.1606 19.1519C17.0546 19.4077 17 19.682 17 19.9589C17 20.2359 17.0545 20.5102 17.1605 20.766C17.2665 21.0219 17.4218 21.2544 17.6177 21.4503L20.8743 24.707C20.9236 24.7563 20.9822 24.7954 21.0466 24.8221C21.1111 24.8488 21.1802 24.8626 21.25 24.8626C21.3197 24.8626 21.3888 24.8488 21.4533 24.8221C21.5177 24.7954 21.5763 24.7563 21.6256 24.707L24.8825 21.4503C25.1775 21.1553 25.3783 20.7795 25.4597 20.3704C25.5411 19.9613 25.4993 19.5372 25.3397 19.1518C25.18 18.7665 24.9097 18.4371 24.5628 18.2054C24.216 17.9736 23.8082 17.85 23.3911 17.85ZM24.1311 20.6988L21.2501 23.58L18.3691 20.6988C18.1772 20.5017 18.0708 20.2369 18.0727 19.9619C18.0745 19.6868 18.1847 19.4235 18.3792 19.2291C18.5737 19.0346 18.8369 18.9245 19.112 18.9226C19.387 18.9207 19.6518 19.0272 19.8489 19.219L20.8743 20.2444C20.9236 20.2937 20.9822 20.3329 21.0466 20.3596C21.1111 20.3863 21.1802 20.4 21.25 20.4C21.3197 20.4 21.3888 20.3863 21.4533 20.3596C21.5177 20.3329 21.5763 20.2937 21.6256 20.2444L22.6513 19.219C22.8483 19.0266 23.1132 18.9196 23.3886 18.9212C23.664 18.9229 23.9276 19.033 24.1223 19.2277C24.3171 19.4225 24.4272 19.6861 24.4288 19.9615C24.4305 20.2368 24.3235 20.5018 24.1311 20.6988Z" fill="#5E9C60"/>
<path d="M31.6146 9.63669L17.2709 1.13669C17.1886 1.08797 17.0948 1.06234 16.9992 1.0625C16.9036 1.06266 16.8098 1.08862 16.7277 1.13762L2.38398 9.69878C2.30503 9.7459 2.23966 9.81271 2.19427 9.89266C2.14887 9.97262 2.12501 10.063 2.125 10.1549V32.4674C2.125 32.6083 2.18097 32.7435 2.2806 32.8431C2.38023 32.9427 2.51535 32.9987 2.65625 32.9987H2.65738L31.3449 32.9375C31.4856 32.9372 31.6204 32.8811 31.7198 32.7815C31.8192 32.6819 31.875 32.547 31.875 32.4063V10.0938C31.875 10.0015 31.851 9.9109 31.8053 9.83077C31.7597 9.75063 31.6939 9.68375 31.6146 9.63669ZM12.75 18.1069V19.6563C12.75 19.7549 12.7775 19.8516 12.8293 19.9355C12.8812 20.0195 12.9554 20.0873 13.0436 20.1314L14.8949 21.057C15.2394 21.2279 15.5399 21.4757 15.7733 21.7812C16.0067 22.0868 16.1667 22.4419 16.2408 22.8192L16.4791 24.0105C16.4997 24.1133 16.5502 24.2078 16.6244 24.2819L16.6783 24.3358C16.8634 24.5205 16.9738 24.7671 16.9882 25.0283C17.0027 25.2894 16.9202 25.5467 16.7566 25.7508L16.5854 25.9649L16.4141 26.179C16.2 26.4466 15.9318 26.6661 15.6271 26.8231C15.3224 26.98 14.988 27.071 14.6458 27.0899C14.3035 27.1089 13.9611 27.0554 13.641 26.933C13.3208 26.8107 13.03 26.6222 12.7877 26.3798L12.5946 26.1867C12.495 26.0871 12.3598 26.0311 12.2189 26.0311C12.078 26.0311 11.9429 26.0871 11.8433 26.1867C11.7437 26.2864 11.6877 26.4215 11.6877 26.5624C11.6877 26.7033 11.7437 26.8384 11.8433 26.938L12.0363 27.1311C12.3614 27.4562 12.7473 27.714 13.172 27.8899C13.5968 28.0658 14.052 28.1563 14.5117 28.1562C14.9714 28.1561 15.4266 28.0655 15.8512 27.8894C16.2759 27.7134 16.6617 27.4554 16.9867 27.1302L17.6477 27.9571C17.7166 28.0432 17.8106 28.1057 17.9167 28.136L18.0596 28.1769C18.8899 28.4171 19.6315 28.8955 20.1928 29.5527C20.754 30.21 21.1103 31.0174 21.2175 31.875H8.89246L8.6866 31.2057C8.14251 29.4417 7.98854 27.5805 8.23537 25.751C8.4822 23.9216 9.12393 22.1677 10.1161 20.6109L10.5421 19.9415C10.5519 19.9261 10.5609 19.9102 10.5691 19.8939L10.692 19.6482C10.8903 19.248 11.1798 18.9 11.5373 18.6323C11.8948 18.3645 12.3102 18.1846 12.75 18.1069ZM18.3714 27.1608L17.6769 26.2926C17.9507 25.896 18.0813 25.418 18.0474 24.9373C18.0134 24.4566 17.8168 24.0017 17.49 23.6475L17.2827 22.6108C17.1772 22.0747 16.9499 21.57 16.6183 21.1358C16.2867 20.7016 15.8596 20.3495 15.3702 20.1067L13.8125 19.328V17.7266L15.9856 17.5291C16.0757 17.5209 16.1622 17.4898 16.237 17.4388C16.3117 17.3878 16.3722 17.3186 16.4126 17.2376L16.9439 16.1751C17.0056 16.0493 17.0151 15.9041 16.9702 15.7713C16.9254 15.6385 16.8299 15.5288 16.7045 15.4661C16.5791 15.4034 16.4341 15.3928 16.3009 15.4366C16.1677 15.4804 16.0573 15.575 15.9936 15.6999L15.5946 16.4978L10.3604 16.9735L9.76796 16.0847L9.83749 16.0382C10.233 15.7735 10.5339 15.3897 10.6965 14.9424C10.8591 14.4952 10.875 14.0077 10.7419 13.5508L12.4564 12.6936C12.5727 12.6354 12.6637 12.5365 12.712 12.4157L13.3628 10.7888C13.4629 10.5378 13.6167 10.3116 13.8133 10.1262C14.0099 9.9408 14.2447 9.80057 14.5011 9.71532L15.7629 9.2947C15.9569 9.23043 16.1571 9.18661 16.3602 9.16395C16.5728 9.40832 16.7638 9.67073 16.9309 9.94821L17.4719 10.8501C17.8584 11.4942 18.0626 12.2313 18.0625 12.9824V14.0932C18.0625 14.7977 18.3424 15.4733 18.8405 15.9715C19.3386 16.4696 20.0143 16.7495 20.7188 16.7495C21.4232 16.7495 22.0989 16.4696 22.597 15.9715C23.0951 15.4733 23.375 14.7977 23.375 14.0932C23.3749 13.8779 23.3614 13.6627 23.3345 13.4491C23.5473 13.7239 23.7508 14.0066 23.945 14.2974C25.6746 16.8981 26.7678 19.8693 27.1363 22.9707C27.4558 25.6593 27.2175 28.385 26.4363 30.9773L26.1641 31.886L22.2874 31.8943C22.1813 30.8047 21.7517 29.7718 21.0539 28.9282C20.356 28.0847 19.4219 27.4692 18.3714 27.1608ZM9.0784 15.0505C9.03662 14.9879 9.00864 14.917 8.99633 14.8427C8.98401 14.7684 8.98764 14.6923 9.00698 14.6195C9.02632 14.5467 9.06092 14.4788 9.10848 14.4204C9.15604 14.362 9.21549 14.3144 9.28286 14.2807L9.76099 14.0416C9.78625 14.2563 9.75177 14.4738 9.66132 14.6701C9.57088 14.8665 9.42799 15.034 9.2484 15.1543L9.17894 15.2008L9.0784 15.0505ZM20.9132 10.9895C21.3525 11.3785 21.7043 11.8562 21.9455 12.3912C22.1867 12.9261 22.3118 13.5061 22.3125 14.093C22.3135 14.3891 22.2315 14.6797 22.0758 14.9316C21.9201 15.1836 21.6969 15.3869 21.4316 15.5184C21.2101 15.6285 20.9661 15.6858 20.7188 15.6858C20.4715 15.6858 20.2275 15.6285 20.006 15.5184C19.7406 15.3869 19.5174 15.1836 19.3617 14.9316C19.206 14.6797 19.124 14.3891 19.125 14.093V12.9824C19.1249 12.039 18.8685 11.1133 18.3832 10.3043L17.8421 9.40241C17.8267 9.37678 17.8098 9.35201 17.7941 9.32658C18.6832 9.56816 19.522 9.96652 20.271 10.5029C20.4902 10.6593 20.7042 10.8215 20.9132 10.9895ZM30.8125 31.8762L27.2739 31.8837L27.4542 31.2827C28.2771 28.5512 28.5281 25.6794 28.1913 22.8466C27.8033 19.5787 26.6516 16.448 24.8293 13.7078C23.9397 12.3719 22.8498 11.1809 21.598 10.1765C21.4697 10.0642 21.3356 9.95737 21.1954 9.85716C21.1792 9.84563 21.1623 9.83501 21.1449 9.82535C21.0601 9.76227 20.9749 9.69958 20.8888 9.63809C19.8696 8.9079 18.7062 8.40388 17.4764 8.15975C16.7939 8.02348 16.0876 8.06745 15.4272 8.28732L14.1655 8.70787C13.7625 8.84181 13.3936 9.06216 13.0846 9.3535C12.7756 9.64484 12.534 10.0001 12.3766 10.3946L11.8004 11.8339L8.80753 13.3303C8.6054 13.4314 8.42708 13.5743 8.2844 13.7495C8.14171 13.9248 8.03792 14.1284 7.97992 14.3468C7.92192 14.5652 7.91103 14.7934 7.94797 15.0164C7.98491 15.2393 8.06885 15.4519 8.1942 15.6399L8.58898 16.232L9.65148 17.8257C9.70452 17.9053 9.77805 17.969 9.86431 18.0103C9.95056 18.0515 10.0463 18.0687 10.1416 18.0601L10.6146 18.017C10.2547 18.345 9.95862 18.7368 9.74127 19.1725L9.63057 19.3939L9.21925 20.0402C8.14442 21.7266 7.44921 23.6267 7.1818 25.6086C6.9144 27.5905 7.08121 29.6068 7.67065 31.5178L7.79589 31.9249L3.1875 31.9348V10.4565L17.001 2.21188L30.8125 10.3965V31.8762Z" fill="#5E9C60"/>
<path d="M14.3438 24.1055C14.7472 24.1055 15.0742 23.7784 15.0742 23.375C15.0742 22.9716 14.7472 22.6445 14.3438 22.6445C13.9403 22.6445 13.6133 22.9716 13.6133 23.375C13.6133 23.7784 13.9403 24.1055 14.3438 24.1055Z" fill="#5E9C60"/>
<path d="M14.6758 13.2812C15.0792 13.2812 15.4062 12.9542 15.4062 12.5508C15.4062 12.1474 15.0792 11.8203 14.6758 11.8203C14.2724 11.8203 13.9453 12.1474 13.9453 12.5508C13.9453 12.9542 14.2724 13.2812 14.6758 13.2812Z" fill="#5E9C60"/>
</svg>
