<svg width="34" height="34" viewBox="0 0 34 34" fill="none" xmlns="http://www.w3.org/2000/svg">
<g clip-path="url(#clip0)">
<path d="M33.1144 24.3355C32.4802 23.4034 31.4043 23.1759 30.2356 23.7258L29.6161 23.9986C30.5928 21.9167 30.714 19.596 30.2278 17.404C29.6694 14.8863 28.3206 12.4473 26.219 10.1548C26.0332 9.95205 25.7182 9.93837 25.5154 10.1242C25.3127 10.31 25.299 10.625 25.4849 10.8278C27.4668 12.9897 28.7355 15.2748 29.2555 17.6196C29.8033 20.0894 29.4846 22.6365 28.0867 24.6719L21.8882 27.4012L21.8934 26.7011C21.8935 26.6834 21.8927 26.6658 21.8909 26.6482C21.7478 25.2094 20.648 24.063 19.2163 23.8604C19.2121 23.8598 19.2078 23.8592 19.2035 23.8588L13.6944 23.2245C11.5759 22.9229 11.0304 21.6534 8.16134 20.9295C7.96311 19.2475 8.22734 17.4566 8.95157 15.6611C10.0423 12.9572 12.1761 10.3302 15.1343 8.0436C16.2368 8.82533 21.1557 8.92262 22.2565 7.91417C22.8204 8.34243 23.3586 8.78376 23.86 9.23048C23.9549 9.31508 24.0732 9.35665 24.1911 9.35665C24.3281 9.35665 24.4647 9.3004 24.563 9.18997C24.746 8.98464 24.7278 8.66988 24.5224 8.48693C23.9729 7.99731 23.3817 7.51421 22.7617 7.04731C22.907 6.43119 22.7036 5.71008 22.1671 5.28083C23.7262 2.91597 24.1797 1.36811 23.5533 0.557159C23.1231 7.65175e-05 22.5878 0.261518 22.3593 0.373213C21.9718 0.562338 21.7606 0.572299 21.4041 0.33908C20.7241 -0.105908 20.0093 -0.120252 19.3073 0.33908C18.9463 0.575287 18.662 0.575287 18.3012 0.33908C17.621 -0.105908 16.9065 -0.120252 16.2044 0.33908C15.8438 0.575088 15.6318 0.560479 15.2505 0.370955C15.0222 0.257467 14.4875 -0.0082907 14.0546 0.548858C13.4422 1.33697 13.8519 2.83602 15.3059 5.12046C15.2168 5.16861 15.1319 5.22512 15.0527 5.28967C14.4744 4.67899 13.527 4.04209 12.1569 4.19509C11.0205 4.32226 10.1825 3.94673 9.67958 3.60939C9.45114 3.45639 9.14182 3.51735 8.98869 3.74565C8.83556 3.97409 8.89659 4.28341 9.12496 4.43654C9.76611 4.86639 10.8317 5.34492 12.2674 5.18481C13.3259 5.06608 14.0442 5.60702 14.4913 6.15753C14.4852 6.17878 14.4796 6.20016 14.4743 6.22155C14.0929 6.22752 13.523 6.26312 12.8953 6.39367C11.3858 6.70771 10.2652 7.42509 9.65475 8.46847C9.51589 8.7058 9.59571 9.01087 9.83305 9.1498C10.0704 9.28865 10.3755 9.20876 10.5143 8.97143C11.4223 7.41958 13.6388 7.22979 14.5191 7.2179C14.5229 7.22886 14.5274 7.23969 14.5314 7.25058C11.3898 9.67394 9.20265 12.3765 8.02806 15.2884C7.28564 17.129 6.98907 18.9729 7.13961 20.7253C6.66208 20.6547 6.17904 20.6168 5.69368 20.6134V20.3123C5.69368 19.5155 5.04542 18.8673 4.24861 18.8673H1.96264C1.16584 18.8673 0.517578 19.5155 0.517578 20.3123V31.9097C0.517578 32.7066 1.16584 33.3548 1.96264 33.3548H4.24855C5.04535 33.3548 5.69361 32.7066 5.69361 31.9097V31.7679L10.6801 33.6239C11.3502 33.8732 12.0525 33.9997 12.7675 33.9997H20.1975C21.3334 33.9997 22.441 33.6783 23.4004 33.0704C33.3122 26.787 32.7103 27.178 32.7675 27.1272C33.5659 26.4185 33.7151 25.2183 33.1144 24.3355ZM21.322 7.32409C19.501 7.78389 17.7305 7.78389 15.9091 7.32409C15.1275 7.12653 15.354 5.73266 16.1939 5.9433C17.8234 6.35237 19.4076 6.35237 21.0372 5.9433C21.8625 5.73612 22.1161 7.12341 21.322 7.32409ZM14.7957 1.25715C14.7996 1.25907 14.8035 1.26106 14.8072 1.26292C15.4812 1.59788 16.0717 1.61607 16.7497 1.17255C17.5981 0.61719 17.6902 1.50763 18.8041 1.50763C19.3404 1.50763 19.6364 1.31399 19.8525 1.17255C20.2135 0.936272 20.4979 0.936405 20.8589 1.17255C21.5398 1.61813 22.1161 1.59615 22.8096 1.26166C22.9121 1.63101 22.6802 2.7321 21.2036 4.93054C20.4703 4.91806 19.4062 5.63823 16.3939 4.96786C14.9205 2.74099 14.6927 1.62922 14.7957 1.25715ZM32.1333 26.358L22.8674 32.2295C22.0677 32.7362 21.1444 33.0042 20.1975 33.0042H12.7676C12.1716 33.0042 11.5862 32.8987 11.0276 32.6908L5.69361 30.7055V25.3428C5.69361 25.0678 5.47069 24.8448 5.1957 24.8448C4.92071 24.8448 4.69778 25.0678 4.69778 25.3428V31.91C4.69778 32.1577 4.49624 32.3592 4.24861 32.3592H1.96264C1.71495 32.3592 1.51347 32.1576 1.51347 31.91V20.3126C1.51347 20.0649 1.71495 19.8634 1.96264 19.8634H4.24855C4.49624 19.8634 4.69772 20.0649 4.69772 20.3126V23.0149C4.69772 23.2899 4.92064 23.5129 5.19563 23.5129C5.47062 23.5129 5.69355 23.2899 5.69355 23.0149V21.6096C9.81279 21.6411 10.739 23.8123 13.5611 24.2115C13.5653 24.2121 13.5696 24.2127 13.5738 24.2131L19.0827 24.8474C20.0473 24.9866 20.7897 25.7547 20.8971 26.7218L20.8902 27.669H15.7527C15.4777 27.669 15.2547 27.892 15.2547 28.167C15.2547 28.4421 15.4776 28.665 15.7527 28.665H21.3845C21.4474 28.665 21.5201 28.6511 21.5833 28.6235C21.5935 28.619 30.632 24.6395 30.6426 24.6348C31.2941 24.3453 31.8881 24.3039 32.2909 24.8958C32.6041 25.3558 32.5348 25.9777 32.1333 26.358Z" fill="#5E9C60"/>
<path d="M18.7468 22.5927C19.0218 22.5927 19.2447 22.3698 19.2447 22.0947V21.2693C20.6427 21.0425 21.4583 19.911 21.6358 18.8554C21.8574 17.5367 21.1668 16.39 19.8762 15.9338C19.6482 15.8532 19.4383 15.7761 19.2447 15.7017V12.5267C19.8338 12.6243 20.1875 12.9292 20.2132 12.952C20.4155 13.1359 20.7285 13.1223 20.9141 12.9211C21.1006 12.719 21.0879 12.4039 20.8857 12.2175C20.8506 12.1851 20.2407 11.636 19.2447 11.5211V10.813C19.2447 10.5379 19.0218 10.315 18.7467 10.315C18.4717 10.315 18.2488 10.5379 18.2488 10.813V11.5614C18.1287 11.5844 18.0057 11.6136 17.8794 11.6516C17.0347 11.906 16.4033 12.6303 16.2315 13.5417C16.0756 14.3688 16.3379 15.1643 16.9158 15.6175C17.2476 15.8778 17.6653 16.1161 18.2488 16.3708V20.3087C17.6729 20.2844 17.3184 20.1763 16.7 19.7717C16.4699 19.6212 16.1613 19.6856 16.0107 19.9158C15.8602 20.1459 15.9247 20.4546 16.1549 20.6051C16.9677 21.1369 17.5111 21.2756 18.2488 21.3043V22.0947C18.2488 22.3698 18.4717 22.5927 18.7468 22.5927ZM17.5305 14.8339C17.2462 14.611 17.1234 14.1865 17.2102 13.7262C17.2907 13.2994 17.5841 12.7807 18.1666 12.6053C18.1943 12.5969 18.2216 12.5897 18.2488 12.5824V15.2722C17.9506 15.1233 17.7168 14.9801 17.5305 14.8339ZM19.5443 16.8728C20.7835 17.3108 20.7067 18.3747 20.6536 18.6904C20.5438 19.3439 20.0641 20.0415 19.2447 20.2515V16.7649C19.3416 16.8004 19.4406 16.8362 19.5443 16.8728Z" fill="#5E9C60"/>
</g>
<defs>
<clipPath id="clip0">
<rect width="34" height="34" fill="white"/>
</clipPath>
</defs>
</svg>
