<svg width="34" height="34" viewBox="0 0 34 34" fill="none" xmlns="http://www.w3.org/2000/svg">
<path d="M24.9681 10.0938C24.9903 10.0938 25.0124 10.0924 25.0345 10.0896C25.9304 9.97765 27.6248 9.27281 27.6248 7.40799C27.6248 6.83557 27.8733 6.41854 28.3846 6.13253C28.6606 5.98303 28.9612 5.88429 29.2721 5.841C29.4111 5.82572 29.5386 5.75619 29.6267 5.6475C29.7148 5.53881 29.7565 5.39974 29.7427 5.2605C29.7289 5.12126 29.6607 4.99308 29.553 4.90382C29.4452 4.81456 29.3066 4.77141 29.1672 4.78375C28.2663 4.8714 26.5625 5.53255 26.5625 7.40806C26.5625 7.98579 26.3107 8.41398 25.7928 8.71779C25.5172 8.87513 25.216 8.98265 24.903 9.03541C24.7689 9.05219 24.6463 9.11941 24.5601 9.2234C24.4738 9.32738 24.4305 9.46031 24.4387 9.59515C24.447 9.72998 24.5064 9.8566 24.6047 9.94923C24.703 10.0419 24.833 10.0936 24.9681 10.0938Z" fill="#5E9C60"/>
<path d="M1.06599 13.8461C1.06779 13.875 1.07196 13.9036 1.07847 13.9317L2.65303 20.7649L1.98518 32.9083C1.98122 32.9804 1.992 33.0526 2.01687 33.1204C2.04174 33.1882 2.08017 33.2502 2.12982 33.3027C2.17946 33.3551 2.23928 33.3969 2.30562 33.4254C2.37196 33.454 2.44342 33.4687 2.51564 33.4687H31.4846C31.5568 33.4687 31.6283 33.454 31.6946 33.4254C31.7609 33.3969 31.8207 33.3551 31.8704 33.3027C31.92 33.2502 31.9585 33.1882 31.9833 33.1204C32.0082 33.0526 32.019 32.9804 32.015 32.9083L31.3472 20.7647L32.9217 13.9315C32.9282 13.9033 32.9324 13.8747 32.9342 13.8459C32.9555 13.5367 32.8855 13.228 32.733 12.9582C32.5805 12.6883 32.3522 12.4692 32.0763 12.3279C32.0112 12.294 31.944 12.2643 31.8751 12.239V5.31247C31.8753 4.21566 31.4984 3.15213 30.8075 2.30027C30.1166 1.44841 29.1538 0.860052 28.0805 0.633876C27.0073 0.4077 25.8889 0.557469 24.913 1.05806C23.9371 1.55865 23.163 2.37961 22.7206 3.38324C22.0076 2.93757 21.1897 2.68777 20.3494 2.65902C19.5091 2.63027 18.6761 2.82359 17.9343 3.21948C17.3788 2.58698 16.6661 2.11239 15.8683 1.84371C15.0705 1.57503 14.2159 1.5218 13.3909 1.68939C12.566 1.85699 11.7999 2.23946 11.1701 2.79814C10.5404 3.35681 10.0694 4.07188 9.80472 4.87101C9.55246 4.81067 9.29392 4.78053 9.03454 4.78122C8.67973 4.77925 8.32704 4.83602 7.99077 4.94923L9.01263 1.20226C9.03412 1.12345 9.03715 1.04075 9.02148 0.960577C9.00581 0.880407 8.97187 0.80493 8.92229 0.740013C8.8727 0.675095 8.80882 0.622486 8.7356 0.586275C8.66238 0.550063 8.58179 0.531225 8.5001 0.531224H5.84385C5.72727 0.531245 5.61393 0.569615 5.52131 0.640419C5.42869 0.711222 5.36193 0.810526 5.33133 0.923021L4.82963 2.76247L4.76263 2.51677C4.73202 2.40428 4.66527 2.30497 4.57264 2.23417C4.48002 2.16337 4.36669 2.125 4.2501 2.12497H1.59385C1.5122 2.12499 1.43165 2.14382 1.35846 2.18002C1.28527 2.21621 1.22141 2.26879 1.17184 2.33366C1.12226 2.39854 1.0883 2.47397 1.07261 2.5541C1.05691 2.63422 1.0599 2.71689 1.08133 2.79568L2.59891 8.36052C2.23155 9.45556 1.99295 10.8843 2.20858 12.2112C2.11032 12.2414 2.01503 12.2805 1.92389 12.328C1.64801 12.4693 1.41967 12.6885 1.26717 12.9584C1.11467 13.2282 1.04472 13.5369 1.06599 13.8461ZM23.3751 5.31247C23.3751 4.3262 23.7669 3.38032 24.4643 2.68292C25.1617 1.98552 26.1076 1.59372 27.0939 1.59372C28.0801 1.59372 29.026 1.98552 29.7234 2.68292C30.4208 3.38032 30.8126 4.3262 30.8126 5.31247V12.2182C30.6298 12.2788 30.459 12.371 30.3079 12.4905C30.1995 12.5759 30.0637 12.6189 29.9258 12.6115C29.788 12.6041 29.6575 12.5467 29.5589 12.4501L28.8724 11.7738C28.5668 11.4752 28.1566 11.3081 27.7293 11.3081C27.3021 11.3081 26.8918 11.4752 26.5862 11.7738L25.9809 12.3703C25.8746 12.4741 25.732 12.5322 25.5835 12.5322C25.435 12.5322 25.2924 12.4741 25.1861 12.3703L24.5807 11.7738C24.4221 11.6183 24.2332 11.497 24.0259 11.4174C23.8185 11.3378 23.597 11.3016 23.3751 11.311V5.31247ZM14.3439 2.65622C14.9375 2.65722 15.5223 2.79994 16.0497 3.07253C16.577 3.34512 17.0317 3.73968 17.3758 4.22341C17.4562 4.33643 17.5776 4.41352 17.7141 4.4382C17.8506 4.46288 17.9913 4.4332 18.1062 4.35549C18.7425 3.92604 19.4961 3.70398 20.2636 3.71978C21.0311 3.73558 21.7749 3.98847 22.393 4.44375C22.3398 4.73027 22.3129 5.02105 22.3126 5.31247V9.0299C21.352 8.31003 20.1759 7.93678 18.976 7.97099C17.7761 8.0052 16.6232 8.44486 15.7052 9.21829C15.6012 8.76348 15.4618 8.31749 15.2883 7.88439C14.9035 6.93637 14.3481 6.38414 13.6375 6.24309C12.9916 6.11486 12.3912 6.3674 11.9685 6.63416C11.6886 6.09925 11.2818 5.64108 10.7839 5.29972C11.0155 4.53571 11.4866 3.86637 12.1276 3.39041C12.7685 2.91445 13.5455 2.65707 14.3439 2.65622ZM22.3126 10.4718V11.7578C22.3068 11.7634 22.3004 11.7681 22.2946 11.7738L21.6892 12.3703C21.5829 12.4741 21.4403 12.5322 21.2918 12.5322C21.1433 12.5322 21.0007 12.4741 20.8944 12.3703L20.289 11.7738C19.9834 11.4752 19.5732 11.3081 19.146 11.3081C18.7187 11.3081 18.3085 11.4752 18.0029 11.7738L17.3975 12.3703C17.2912 12.4741 17.1486 12.5322 17.0001 12.5322C16.8516 12.5322 16.709 12.4741 16.6027 12.3703L15.9974 11.7738C15.8091 11.5884 15.5782 11.4521 15.3248 11.377C15.6365 10.755 16.0961 10.219 16.6633 9.81615C17.2306 9.41328 17.8881 9.15585 18.578 9.06648C19.268 8.9771 19.9694 9.0585 20.6205 9.30354C21.2717 9.54858 21.8527 9.94976 22.3126 10.4718ZM6.2496 1.59372H7.80456L6.64305 5.85262C6.42917 6.08982 6.245 6.3522 6.0946 6.63396C6.01777 6.58548 5.93483 6.53747 5.84697 6.49212L5.38034 4.78122L6.2496 1.59372ZM5.93994 7.8563C6.00553 7.92294 6.08753 7.97109 6.17768 7.99589C6.26783 8.02069 6.36293 8.02126 6.45337 7.99753C6.54381 7.97381 6.62639 7.92664 6.69276 7.86079C6.75913 7.79494 6.80695 7.71273 6.83138 7.62248C6.83616 7.60475 7.33261 5.84372 9.03454 5.84372C10.7138 5.84372 11.2116 7.55196 11.2313 7.62248C11.2558 7.71273 11.3036 7.79494 11.3699 7.86079C11.4363 7.92664 11.5189 7.97381 11.6093 7.99753C11.6998 8.02126 11.7949 8.02069 11.885 7.99589C11.9752 7.97109 12.0572 7.92294 12.1228 7.8563C12.3001 7.67607 12.921 7.18394 13.4304 7.2852C13.768 7.35221 14.0618 7.68822 14.3036 8.28395C14.5476 8.89593 14.7164 9.53528 14.8062 10.188C14.5212 10.5847 14.2927 11.0191 14.127 11.4786C13.9736 11.5543 13.8332 11.6539 13.7112 11.7737L13.1058 12.3703C13.0331 12.4413 12.9428 12.4915 12.8442 12.5158C12.7455 12.5401 12.6422 12.5374 12.5449 12.5082C12.798 10.5129 12.2552 9.3776 12.2307 9.3278C12.169 9.20112 12.0595 9.10414 11.9263 9.0582C11.7931 9.01225 11.6471 9.02109 11.5204 9.08279C11.3938 9.14448 11.2968 9.25397 11.2508 9.38717C11.2049 9.52037 11.2137 9.66636 11.2754 9.79304C11.2792 9.80107 11.5766 10.4514 11.5477 11.6391C11.2355 11.4035 10.8491 11.2875 10.4587 11.3123C10.0683 11.337 9.69974 11.5008 9.41976 11.774L8.81434 12.3705C8.70809 12.4743 8.56547 12.5324 8.41696 12.5324C8.26845 12.5324 8.12583 12.4743 8.01959 12.3705L7.41423 11.774C7.18153 11.5451 6.88492 11.392 6.5635 11.3351C6.5961 10.3545 6.8438 9.81489 6.85223 9.79682C6.91203 9.67092 6.91995 9.52655 6.87429 9.39486C6.82863 9.26317 6.73304 9.1547 6.60813 9.09284C6.48323 9.03098 6.33901 9.02068 6.20659 9.06418C6.07416 9.10767 5.96414 9.20147 5.90023 9.32534C5.88277 9.36027 5.50618 10.1314 5.49768 11.5029C5.36215 11.5752 5.23768 11.6666 5.12806 11.7743L4.44155 12.45C4.34293 12.5465 4.2125 12.6039 4.07465 12.6113C3.93681 12.6187 3.80098 12.5757 3.69256 12.4903C3.57223 12.3953 3.43933 12.3175 3.29764 12.259C3.00545 10.8977 3.33237 9.33537 3.75909 8.28402C4.00042 7.68962 4.2934 7.3538 4.63001 7.28574C5.13543 7.18334 5.7479 7.66392 5.93994 7.8563ZM2.28939 3.18747H3.84436L4.66919 6.21208C4.58734 6.21683 4.50591 6.22719 4.42548 6.24309C3.99729 6.32809 3.62595 6.56344 3.31384 6.94361L2.28939 3.18747ZM2.41769 13.2689C2.51467 13.2166 2.62493 13.194 2.73469 13.2039C2.84445 13.2138 2.94885 13.2559 3.03487 13.3248C3.3467 13.57 3.73718 13.6933 4.1333 13.6716C4.52942 13.6499 4.90407 13.4846 5.18723 13.2068L5.87347 12.5308C5.9797 12.427 6.12232 12.3689 6.27084 12.3689C6.41937 12.3689 6.56199 12.427 6.66822 12.5308L7.27365 13.1273C7.57922 13.4259 7.9895 13.5931 8.41673 13.5931C8.84396 13.5931 9.25424 13.4259 9.55981 13.1273L10.1652 12.5308C10.2714 12.427 10.414 12.3689 10.5625 12.3689C10.7111 12.3689 10.8537 12.427 10.9599 12.5308L11.5653 13.1273C11.8709 13.4259 12.2812 13.593 12.7084 13.593C13.1356 13.593 13.5459 13.4259 13.8515 13.1273L14.4567 12.5308C14.563 12.427 14.7056 12.3689 14.8541 12.3689C15.0026 12.3689 15.1453 12.427 15.2515 12.5308L15.8569 13.1273C16.1625 13.4259 16.5727 13.593 17 13.593C17.4272 13.593 17.8375 13.4259 18.143 13.1273L18.7484 12.5308C18.8547 12.427 18.9973 12.3689 19.1458 12.3689C19.2943 12.3689 19.437 12.427 19.5432 12.5308L20.1486 13.1273C20.4542 13.4259 20.8645 13.593 21.2917 13.593C21.7189 13.593 22.1292 13.4259 22.4347 13.1273L23.0401 12.5308C23.1464 12.427 23.289 12.3689 23.4375 12.3689C23.586 12.3689 23.7287 12.427 23.8349 12.5308L24.4403 13.1273C24.7458 13.4259 25.1561 13.5931 25.5833 13.5931C26.0106 13.5931 26.4209 13.4259 26.7264 13.1273L27.3319 12.5308C27.4381 12.427 27.5807 12.3689 27.7292 12.3689C27.8778 12.3689 28.0204 12.427 28.1266 12.5308L28.8128 13.2069C29.096 13.4848 29.4707 13.65 29.8668 13.6717C30.2629 13.6934 30.6534 13.5702 30.9652 13.3249C31.0512 13.256 31.1556 13.214 31.2654 13.204C31.3751 13.1941 31.4854 13.2167 31.5824 13.2691C31.6699 13.3134 31.7435 13.3811 31.7951 13.4645C31.8468 13.5479 31.8744 13.644 31.8751 13.7421L30.2946 20.5992C30.2835 20.6478 30.2792 20.6978 30.2819 20.7476L30.9233 32.4062H3.0769L3.71806 20.7479C3.72088 20.698 3.71668 20.6479 3.70557 20.5992L2.1251 13.7421C2.12574 13.644 2.15337 13.5479 2.20498 13.4644C2.25659 13.381 2.33018 13.3133 2.41769 13.2689Z" fill="#5E9C60"/>
<path d="M12.75 20.7188H21.25C21.3909 20.7188 21.526 20.6628 21.6257 20.5632C21.7253 20.4635 21.7812 20.3284 21.7812 20.1875V17C21.7812 16.8591 21.7253 16.724 21.6257 16.6243C21.526 16.5247 21.3909 16.4688 21.25 16.4688H12.75C12.6091 16.4688 12.474 16.5247 12.3743 16.6243C12.2747 16.724 12.2188 16.8591 12.2188 17V20.1875C12.2188 20.3284 12.2747 20.4635 12.3743 20.5632C12.474 20.6628 12.6091 20.7188 12.75 20.7188ZM13.2812 17.5312H20.7188V19.6562H13.2812V17.5312Z" fill="#5E9C60"/>
</svg>
