<svg width="34" height="34" viewBox="0 0 34 34" fill="none" xmlns="http://www.w3.org/2000/svg">
<g clip-path="url(#clip0)">
<path d="M33.502 24.4641C33.777 24.4641 34 24.2412 34 23.9661V23.0029C34 22.0292 33.2565 21.237 32.3427 21.237H31.5367V20.2165C31.5367 19.5024 30.9557 18.9215 30.2417 18.9215H26.2328C25.5187 18.9215 24.9378 19.5025 24.9378 20.2165V22.8741C21.3566 22.4563 16.8988 22.4557 13.3115 22.8741V20.2165C13.3115 19.5024 12.7305 18.9215 12.0165 18.9215H11.6998C14.4301 17.2589 17.4835 15.0043 19.8642 12.8086L21.4275 14.9578C21.8482 15.5362 22.6602 15.6625 23.2366 15.2433L26.4786 12.8852C26.4786 12.8852 26.4786 12.8852 26.4786 12.8852C27.056 12.4652 27.1841 11.6537 26.7641 11.0761L26.1638 10.2508L26.8156 9.77676C27.5546 9.23913 27.6899 8.16123 27.1171 7.37379L24.4138 3.6571C23.8409 2.86979 22.7739 2.66639 22.0348 3.20395L21.3829 3.67815L20.7827 2.85292C20.3627 2.27532 19.5512 2.14736 18.9736 2.56731L15.7316 4.92539C15.1542 5.34534 15.0261 6.15689 15.4461 6.73443L17.0094 8.8836C13.8667 10.6529 10.2621 13.274 7.6073 15.7224L6.45734 14.1416C5.80975 13.2513 4.5568 13.0534 3.66662 13.7012L1.56115 15.2326C0.67038 15.8806 0.472822 17.1325 1.12075 18.0233L1.30761 18.2803L0.655837 18.7543C-0.0979385 19.3025 -0.206778 20.3859 0.354287 21.1573L3.05768 24.8739C3.35345 25.2806 3.78695 25.5392 4.24927 25.608V27.5987C4.24927 28.5724 4.99275 29.3646 5.90657 29.3646H6.71261V30.3851C6.71261 31.0992 7.29359 31.6801 8.00759 31.6801H12.0165C12.7306 31.6801 13.3115 31.0991 13.3115 30.3851V27.7277C14.727 27.8924 16.3181 27.9959 17.9524 28.0288C17.9559 28.0289 17.9593 28.0289 17.9627 28.0289C18.2331 28.0289 18.455 27.8125 18.4605 27.5409C18.466 27.2659 18.2475 27.0384 17.9725 27.0329C16.3246 26.9997 14.7238 26.8937 13.3115 26.7248V23.8767C16.8348 23.4544 21.3413 23.4457 24.9378 23.8767V26.7248C23.5256 26.8937 21.9247 26.9997 20.2768 27.0329C20.0018 27.0384 19.7833 27.2659 19.7888 27.5408C19.7943 27.8125 20.0161 28.0289 20.2866 28.0289C20.29 28.0289 20.2935 28.0289 20.2968 28.0288C21.9312 27.9959 23.5224 27.8924 24.9378 27.7277V30.3851C24.9378 31.0992 25.5188 31.6801 26.2328 31.6801H30.2417C30.9558 31.6801 31.5367 31.0991 31.5367 30.3851V29.3646H32.3427C33.2565 29.3646 34 28.5724 34 27.5987V26.2905C34 26.0154 33.777 25.7925 33.502 25.7925C33.2269 25.7925 33.0039 26.0154 33.0039 26.2905V27.5987C33.0039 28.0159 32.7012 28.3685 32.3428 28.3685H31.5367V22.2332H32.3428C32.7011 22.2332 33.0039 22.5857 33.0039 23.0029V23.9662C33.0039 24.2412 33.2269 24.4641 33.502 24.4641ZM22.6207 4.00952C22.9105 3.79888 23.3628 3.90573 23.6081 4.24314L26.3115 7.95982C26.5569 8.29716 26.5194 8.76041 26.2296 8.97119L25.5778 9.44526C25.1742 8.89024 22.3791 5.04751 21.9689 4.48359L22.6207 4.00952ZM16.2517 6.14859C16.1565 6.01757 16.1866 5.82639 16.3176 5.7311L19.5596 3.37295C19.6912 3.27739 19.8821 3.30827 19.977 3.43889C20.1786 3.71607 24.8245 10.1033 25.0651 10.4341C25.0653 10.4342 25.0653 10.4344 25.0655 10.4345L25.9584 11.6621C26.0537 11.7931 26.0236 11.9843 25.8926 12.0796L22.6505 14.4377C22.5189 14.5334 22.3296 14.5045 22.2331 14.3718C22.0366 14.1017 16.4888 6.47458 16.2517 6.14859ZM17.5992 9.69455L19.2745 11.9978C16.6833 14.4027 13.0486 17.0614 9.87221 18.8362L8.19712 16.5333C10.7814 14.1347 14.4182 11.4718 17.5992 9.69455ZM4.24927 23.0029V24.5839C4.10112 24.5287 3.96419 24.4265 3.86339 24.2879L1.15999 20.5713C0.903333 20.2185 0.960708 19.7644 1.24187 19.5599L1.89365 19.0858C1.97267 19.1945 2.59138 20.0451 4.33527 22.4427C4.2759 22.6313 4.24927 22.826 4.24927 23.0029ZM6.71261 28.3684H5.90657C5.54824 28.3684 5.24543 28.0159 5.24543 27.5986C5.24543 27.1487 5.24543 23.4719 5.24543 23.0028C5.24543 22.8288 5.30287 22.641 5.41663 22.4934C5.55209 22.3174 5.73531 22.2331 5.90657 22.2331H6.71254V28.3684H6.71261ZM6.71261 20.2164V21.2369H5.90657C5.86613 21.2369 5.82609 21.239 5.78631 21.2421C5.77927 21.2426 5.77223 21.2432 5.76519 21.2438C5.4568 21.2717 5.17232 21.3899 4.93505 21.5735L1.92639 17.4372C1.60153 16.9907 1.70054 16.363 2.14712 16.0381L4.25259 14.5067C4.69718 14.1831 5.32811 14.2825 5.6517 14.7275C6.01435 15.226 8.31412 18.3878 8.7022 18.9213H8.00753C7.29359 18.9213 6.71261 19.5023 6.71261 20.2164ZM12.3154 30.385C12.3154 30.547 12.1786 30.6839 12.0166 30.6839H8.00766C7.8457 30.6839 7.70883 30.547 7.70883 30.385C7.70883 29.9163 7.70883 20.5221 7.70883 20.2165C7.70883 20.0545 7.8457 19.9176 8.00766 19.9176C9.02122 19.9176 9.58082 19.9176 9.87214 19.9176C10.0821 19.9176 10.1528 19.9176 10.1534 19.9176C10.4446 19.9176 11.0038 19.9176 12.0166 19.9176C12.1786 19.9176 12.3154 20.0545 12.3154 20.2165C12.3154 20.8328 12.3154 30.0061 12.3154 30.385ZM30.5406 30.385C30.5406 30.547 30.4037 30.6839 30.2418 30.6839H26.2328C26.0709 30.6839 25.934 30.547 25.934 30.385V20.2165C25.934 20.0545 26.0709 19.9176 26.2328 19.9176H30.2418C30.4037 19.9176 30.5406 20.0545 30.5406 20.2165C30.5406 20.8299 30.5406 30.0559 30.5406 30.385Z" fill="#5E9C60"/>
</g>
<defs>
<clipPath id="clip0">
<rect width="34" height="34" fill="white"/>
</clipPath>
</defs>
</svg>
