<svg width="34" height="34" viewBox="0 0 34 34" fill="none" xmlns="http://www.w3.org/2000/svg">
<path d="M25.5 28.1562C24.6213 28.1562 23.9062 28.8713 23.9062 29.75C23.9062 30.6287 24.6213 31.3438 25.5 31.3438C26.3787 31.3438 27.0938 30.6287 27.0938 29.75C27.0938 28.8713 26.3787 28.1562 25.5 28.1562ZM25.5 30.2812C25.2073 30.2812 24.9688 30.0432 24.9688 29.75C24.9688 29.4568 25.2073 29.2188 25.5 29.2188C25.7927 29.2188 26.0312 29.4568 26.0312 29.75C26.0312 30.0432 25.7927 30.2812 25.5 30.2812Z" fill="#5E9C60"/>
<path d="M7.4375 28.1562C6.55881 28.1562 5.84375 28.8713 5.84375 29.75C5.84375 30.6287 6.55881 31.3438 7.4375 31.3438C8.31619 31.3438 9.03125 30.6287 9.03125 29.75C9.03125 28.8713 8.31619 28.1562 7.4375 28.1562ZM7.4375 30.2812C7.14478 30.2812 6.90625 30.0432 6.90625 29.75C6.90625 29.4568 7.14478 29.2188 7.4375 29.2188C7.73022 29.2188 7.96875 29.4568 7.96875 29.75C7.96875 30.0432 7.73022 30.2812 7.4375 30.2812Z" fill="#5E9C60"/>
<path d="M11.6875 24.9688H12.75V26.0312H11.6875V24.9688Z" fill="#5E9C60"/>
<path d="M12.75 23.9062H13.8125V24.9688H12.75V23.9062Z" fill="#5E9C60"/>
<path d="M13.8125 24.9688H14.875V26.0312H13.8125V24.9688Z" fill="#5E9C60"/>
<path d="M14.875 23.9062H15.9375V24.9688H14.875V23.9062Z" fill="#5E9C60"/>
<path d="M15.9375 24.9688H17V26.0312H15.9375V24.9688Z" fill="#5E9C60"/>
<path d="M17 23.9062H18.0625V24.9688H17V23.9062Z" fill="#5E9C60"/>
<path d="M18.0625 24.9688H19.125V26.0312H18.0625V24.9688Z" fill="#5E9C60"/>
<path d="M19.125 23.9062H20.1875V24.9688H19.125V23.9062Z" fill="#5E9C60"/>
<path d="M20.1875 24.9688H21.25V26.0312H20.1875V24.9688Z" fill="#5E9C60"/>
<path d="M17.5312 5.3125H18.5938V8.5H19.6562V5.3125H20.7188V4.25H17.5312V5.3125Z" fill="#5E9C60"/>
<path d="M23.375 4.25C22.4963 4.25 21.7812 4.96506 21.7812 5.84375V8.5H22.8438V7.4375H23.9062V8.5H24.9688V5.84375C24.9688 4.96506 24.2537 4.25 23.375 4.25ZM22.8438 6.375V5.84375C22.8438 5.5505 23.0823 5.3125 23.375 5.3125C23.6677 5.3125 23.9062 5.5505 23.9062 5.84375V6.375H22.8438Z" fill="#5E9C60"/>
<path d="M28.1562 4.25C28.1562 4.7515 27.9597 5.23813 27.625 5.60947C27.2903 5.23813 27.0938 4.7515 27.0938 4.25H26.0312C26.0312 5.03625 26.341 5.80391 26.8802 6.375C26.341 6.94609 26.0312 7.71375 26.0312 8.5H27.0938C27.0938 7.9985 27.2903 7.51187 27.625 7.14053C27.9597 7.51187 28.1562 7.9985 28.1562 8.5H29.2188C29.2188 7.71375 28.909 6.94609 28.3698 6.375C28.909 5.80391 29.2188 5.03625 29.2188 4.25H28.1562Z" fill="#5E9C60"/>
<path d="M30.2812 4.25H31.3438V8.5H30.2812V4.25Z" fill="#5E9C60"/>
<path d="M26.5625 14.3438C26.8557 14.3438 27.0938 14.1063 27.0938 13.8125V12.2188H32.9375C33.2308 12.2188 33.4688 11.9813 33.4688 11.6875V1.0625C33.4688 0.768719 33.2308 0.53125 32.9375 0.53125H15.9375C15.6442 0.53125 15.4062 0.768719 15.4062 1.0625V11.6875C15.4062 11.9813 15.6442 12.2188 15.9375 12.2188H21.7812V13.8125C21.7812 14.1063 22.0193 14.3438 22.3125 14.3438H22.8438V17.1758L22.7577 17.0967C21.8838 16.2902 20.8154 15.7542 19.6685 15.5284V13.8125C19.6685 13.5187 19.4305 13.2812 19.1372 13.2812H10.625C10.3317 13.2812 10.0938 13.5187 10.0938 13.8125V15.5943C8.56694 15.9715 7.21756 16.9033 6.32294 18.2453L3.96578 21.7812H3.1875C1.72284 21.7812 0.53125 22.9728 0.53125 24.4375V28.6875C0.53125 29.5662 1.24631 30.2812 2.125 30.2812H3.76125C4.0205 32.0801 5.56803 33.4688 7.4375 33.4688C9.30697 33.4688 10.8545 32.0801 11.1138 30.2812H21.8238C22.083 32.0801 23.6305 33.4688 25.5 33.4688C27.3695 33.4688 28.917 32.0801 29.1762 30.2812H31.875C32.7537 30.2812 33.4688 29.5662 33.4688 28.6875V24.4375C33.4688 22.9728 32.2772 21.7812 30.8125 21.7812H27.8327L26.0312 20.1184V14.3438H26.5625ZM16.4688 1.59375H32.4062V11.1562H16.4688V1.59375ZM26.0312 12.2188V13.2812H22.8438V12.2188H26.0312ZM11.1562 14.3438H18.606V15.4142C18.5486 15.4126 18.4918 15.4062 18.4338 15.4062H11.6275C11.4686 15.4062 11.313 15.4238 11.1562 15.4355V14.3438ZM13.8247 21.7812V16.4688H14.8872V21.7812H13.8247ZM7.20694 18.8344C8.19453 17.3533 9.84725 16.4688 11.6275 16.4688H12.7622V21.7812H5.24237L7.20694 18.8344ZM2.65625 22.9415V24.4375C2.65625 25.1292 2.21053 25.7136 1.59375 25.9335V24.4375C1.59375 23.7458 2.03947 23.1614 2.65625 22.9415ZM7.4375 32.4062C5.97284 32.4062 4.78125 31.2147 4.78125 29.75C4.78125 28.2853 5.97284 27.0938 7.4375 27.0938C8.90216 27.0938 10.0938 28.2853 10.0938 29.75C10.0938 31.2147 8.90216 32.4062 7.4375 32.4062ZM25.5 32.4062C24.0353 32.4062 22.8438 31.2147 22.8438 29.75C22.8438 28.2853 24.0353 27.0938 25.5 27.0938C26.9647 27.0938 28.1562 28.2853 28.1562 29.75C28.1562 31.2147 26.9647 32.4062 25.5 32.4062ZM31.875 29.2188H29.1762C28.917 27.4199 27.3695 26.0312 25.5 26.0312C23.6305 26.0312 22.083 27.4199 21.8238 29.2188H11.1138C10.8545 27.4199 9.30697 26.0312 7.4375 26.0312C5.56803 26.0312 4.0205 27.4199 3.76125 29.2188H2.125C1.83228 29.2188 1.59375 28.9807 1.59375 28.6875V27.0401C2.80447 26.7931 3.71875 25.7199 3.71875 24.4375V22.8438H29.2188V23.9062C29.2188 25.0782 30.1718 26.0312 31.3438 26.0312H32.4062V28.6875C32.4062 28.9807 32.1677 29.2188 31.875 29.2188ZM32.4062 24.4375V24.9688H31.3438C30.7578 24.9688 30.2812 24.4922 30.2812 23.9062V22.8438H30.8125C31.6912 22.8438 32.4062 23.5588 32.4062 24.4375ZM15.9497 21.7812V16.4688H18.4338C19.7731 16.4688 21.0529 16.9687 22.0373 17.8771L26.2666 21.7812H15.9497ZM24.9688 19.1377L23.9062 18.1571V14.3438H24.9688V19.1377Z" fill="#5E9C60"/>
</svg>
