<svg width="34" height="34" viewBox="0 0 34 34" fill="none" xmlns="http://www.w3.org/2000/svg">
<path d="M30.2813 10.625H29.75V10.0938C29.7496 9.7643 29.6472 9.44305 29.457 9.17407C29.2668 8.90509 28.998 8.70155 28.6875 8.59138V6.90625C28.6875 6.76535 28.6315 6.63023 28.5319 6.5306C28.4323 6.43097 28.2972 6.375 28.1563 6.375V4.25H30.2813C30.704 4.25 31.1093 4.08209 31.4082 3.7832C31.7071 3.48432 31.875 3.07894 31.875 2.65625C31.875 2.23356 31.7071 1.82818 31.4082 1.5293C31.1093 1.23041 30.704 1.0625 30.2813 1.0625H24.9688C24.5462 1.06299 24.1411 1.23106 23.8424 1.52984C23.5436 1.82862 23.3755 2.23371 23.375 2.65625V3.71875C23.375 3.85965 23.431 3.99477 23.5306 4.0944C23.6302 4.19403 23.7654 4.25 23.9063 4.25H24.9688V6.375C24.8279 6.375 24.6927 6.43097 24.5931 6.5306C24.4935 6.63023 24.4375 6.76535 24.4375 6.90625V8.59138C24.127 8.70155 23.8582 8.90509 23.668 9.17407C23.4778 9.44305 23.3754 9.7643 23.375 10.0938V10.625H22.8438C22.1395 10.6258 21.4644 10.9059 20.9664 11.4039C20.4684 11.9018 20.1883 12.577 20.1875 13.2812V14.875H17V8.5H19.6563C19.7972 8.5 19.9323 8.44403 20.0319 8.3444C20.1315 8.24477 20.1875 8.10965 20.1875 7.96875V1.59375C20.1875 1.45285 20.1315 1.31773 20.0319 1.2181C19.9323 1.11847 19.7972 1.0625 19.6563 1.0625H15.4063C14.9837 1.06297 14.5786 1.23104 14.2798 1.52982C13.9811 1.82861 13.813 2.23371 13.8125 2.65625V14.875H11.236L11.6871 4.27258C11.6902 4.20097 11.6787 4.12949 11.6534 4.06243C11.6281 3.99537 11.5895 3.93413 11.5399 3.88239C11.4903 3.83065 11.4307 3.78948 11.3648 3.76135C11.2989 3.73323 11.2279 3.71874 11.1563 3.71875H1.59377C1.5221 3.71875 1.45117 3.73325 1.38526 3.76137C1.31934 3.7895 1.25979 3.83067 1.21021 3.88241C1.16062 3.93415 1.12201 3.99539 1.09671 4.06245C1.07141 4.1295 1.05993 4.20098 1.06298 4.27258L2.12502 29.2299V32.4062C2.12502 32.5471 2.18099 32.6823 2.28061 32.7819C2.38024 32.8815 2.51537 32.9375 2.65627 32.9375H30.2813C30.9855 32.9367 31.6607 32.6566 32.1586 32.1586C32.6566 31.6607 32.9367 30.9855 32.9375 30.2812V13.2812C32.9367 12.577 32.6566 11.9018 32.1586 11.4039C31.6607 10.9059 30.9855 10.6258 30.2813 10.625ZM27.625 7.4375V8.5H25.5V7.4375H27.625ZM24.4375 2.65625C24.4377 2.5154 24.4937 2.38037 24.5933 2.28077C24.6929 2.18118 24.8279 2.12516 24.9688 2.125H30.2813C30.4222 2.125 30.5573 2.18097 30.6569 2.2806C30.7565 2.38023 30.8125 2.51535 30.8125 2.65625C30.8125 2.79715 30.7565 2.93227 30.6569 3.0319C30.5573 3.13153 30.4222 3.1875 30.2813 3.1875H24.4375V2.65625ZM26.0313 4.25H27.0938V6.375H26.0313V4.25ZM24.4375 10.0938C24.4377 9.9529 24.4937 9.81787 24.5933 9.71827C24.6929 9.61868 24.8279 9.56266 24.9688 9.5625H28.1563C28.2971 9.56266 28.4321 9.61868 28.5317 9.71827C28.6313 9.81787 28.6874 9.9529 28.6875 10.0938V10.625H24.4375V10.0938ZM24.9688 27.0938C24.9683 27.5163 24.8002 27.9214 24.5014 28.2202C24.2026 28.5189 23.7976 28.687 23.375 28.6875H14.875C14.4525 28.687 14.0474 28.5189 13.7486 28.2202C13.4498 27.9214 13.2818 27.5163 13.2813 27.0938V23.9062C13.2818 23.4837 13.4498 23.0786 13.7486 22.7798C14.0474 22.4811 14.4525 22.313 14.875 22.3125H23.375C23.7976 22.313 24.2026 22.4811 24.5014 22.7798C24.8002 23.0786 24.9683 23.4837 24.9688 23.9062V27.0938ZM20.1875 21.25H14.875C14.1708 21.2508 13.4956 21.5309 12.9976 22.0289C12.4997 22.5268 12.2196 23.202 12.2188 23.9062V27.0938C12.2182 27.6688 12.4052 28.2284 12.7515 28.6875H11.1563C11.0154 28.6875 10.8802 28.7435 10.7806 28.8431C10.681 28.9427 10.625 29.0779 10.625 29.2188V30.2812C10.6244 30.8563 10.8114 31.4159 11.1577 31.875H9.56252V31.3438C9.56252 31.2029 9.50655 31.0677 9.40692 30.9681C9.30729 30.8685 9.17216 30.8125 9.03127 30.8125C8.89037 30.8125 8.75524 30.8685 8.65561 30.9681C8.55599 31.0677 8.50002 31.2029 8.50002 31.3438V31.875H6.37502V15.9375H8.50002V16.4688C8.50002 16.6096 8.55599 16.7448 8.65561 16.8444C8.75524 16.944 8.89037 17 9.03127 17C9.17216 17 9.30729 16.944 9.40692 16.8444C9.50655 16.7448 9.56252 16.6096 9.56252 16.4688V15.9375H20.1875V21.25ZM19.125 3.1875C18.9841 3.1875 18.849 3.24347 18.7494 3.3431C18.6497 3.44273 18.5938 3.57785 18.5938 3.71875C18.5938 3.85965 18.6497 3.99477 18.7494 4.0944C18.849 4.19403 18.9841 4.25 19.125 4.25V5.3125C18.9841 5.3125 18.849 5.36847 18.7494 5.4681C18.6497 5.56773 18.5938 5.70285 18.5938 5.84375C18.5938 5.98465 18.6497 6.11977 18.7494 6.2194C18.849 6.31903 18.9841 6.375 19.125 6.375V7.4375H17.9711C18.0317 7.26693 18.0626 7.08725 18.0625 6.90625V2.65625C18.0626 2.47525 18.0317 2.29557 17.9711 2.125H19.125V3.1875ZM14.875 2.65625C14.8752 2.5154 14.9312 2.38037 15.0308 2.28077C15.1304 2.18118 15.2654 2.12516 15.4063 2.125H16.4688C16.6096 2.12516 16.7446 2.18118 16.8442 2.28077C16.9438 2.38037 16.9999 2.5154 17 2.65625V6.90625C16.9999 7.0471 16.9438 7.18213 16.8442 7.28173C16.7446 7.38132 16.6096 7.43734 16.4688 7.4375H14.875V2.65625ZM14.875 8.5H15.9375V14.875H14.875V8.5ZM5.84377 14.875C5.70287 14.875 5.56774 14.931 5.46811 15.0306C5.36849 15.1302 5.31252 15.2654 5.31252 15.4062V28.6875H3.1654L2.2385 6.90625H10.5115L10.1724 14.875H5.84377ZM10.6019 4.78125L10.5567 5.84375H2.19335L2.14812 4.78125H10.6019ZM3.18752 29.75H5.31252V31.875H3.18752V29.75ZM13.2813 31.875C12.8587 31.8745 12.4536 31.7065 12.1548 31.4077C11.8561 31.1089 11.688 30.7038 11.6875 30.2812V29.75H26.5625V30.2812C26.562 30.7038 26.394 31.1089 26.0952 31.4077C25.7964 31.7065 25.3913 31.8745 24.9688 31.875H13.2813ZM31.875 30.2812C31.8745 30.7038 31.7065 31.1089 31.4077 31.4077C31.1089 31.7065 30.7038 31.8745 30.2813 31.875H27.0923C27.4386 31.4159 27.6256 30.8563 27.625 30.2812V29.2188C27.625 29.0779 27.569 28.9427 27.4694 28.8431C27.3698 28.7435 27.2347 28.6875 27.0938 28.6875H25.4986C25.8448 28.2284 26.0319 27.6688 26.0313 27.0938V23.9062C26.0305 23.202 25.7504 22.5268 25.2524 22.0289C24.7544 21.5309 24.0793 21.2508 23.375 21.25H21.25V13.2812C21.2505 12.8587 21.4186 12.4536 21.7173 12.1548C22.0161 11.856 22.4212 11.688 22.8438 11.6875H30.2813C30.7038 11.688 31.1089 11.856 31.4077 12.1548C31.7065 12.4536 31.8745 12.8587 31.875 13.2812V30.2812Z" fill="#5E9C60"/>
<path d="M26.5625 13.2812C24.4773 13.2812 22.8438 14.448 22.8438 15.9375C22.8438 17.427 24.4773 18.5938 26.5625 18.5938C28.6477 18.5938 30.2812 17.427 30.2812 15.9375C30.2812 14.448 28.6477 13.2812 26.5625 13.2812ZM26.5625 17.5312C25.1227 17.5312 23.9062 16.8014 23.9062 15.9375C23.9062 15.0736 25.1227 14.3438 26.5625 14.3438C28.0023 14.3438 29.2188 15.0736 29.2188 15.9375C29.2188 16.8014 28.0023 17.5312 26.5625 17.5312Z" fill="#5E9C60"/>
<path d="M9.03125 18.0625C8.89035 18.0625 8.75523 18.1185 8.6556 18.2181C8.55597 18.3177 8.5 18.4529 8.5 18.5938V19.6562C8.5 19.7971 8.55597 19.9323 8.6556 20.0319C8.75523 20.1315 8.89035 20.1875 9.03125 20.1875C9.17215 20.1875 9.30727 20.1315 9.4069 20.0319C9.50653 19.9323 9.5625 19.7971 9.5625 19.6562V18.5938C9.5625 18.4529 9.50653 18.3177 9.4069 18.2181C9.30727 18.1185 9.17215 18.0625 9.03125 18.0625Z" fill="#5E9C60"/>
<path d="M9.03125 21.25C8.89035 21.25 8.75523 21.306 8.6556 21.4056C8.55597 21.5052 8.5 21.6404 8.5 21.7812V22.8438C8.5 22.9846 8.55597 23.1198 8.6556 23.2194C8.75523 23.319 8.89035 23.375 9.03125 23.375C9.17215 23.375 9.30727 23.319 9.4069 23.2194C9.50653 23.1198 9.5625 22.9846 9.5625 22.8438V21.7812C9.5625 21.6404 9.50653 21.5052 9.4069 21.4056C9.30727 21.306 9.17215 21.25 9.03125 21.25Z" fill="#5E9C60"/>
<path d="M9.03125 24.4375C8.89035 24.4375 8.75523 24.4935 8.6556 24.5931C8.55597 24.6927 8.5 24.8279 8.5 24.9688V26.0312C8.5 26.1721 8.55597 26.3073 8.6556 26.4069C8.75523 26.5065 8.89035 26.5625 9.03125 26.5625C9.17215 26.5625 9.30727 26.5065 9.4069 26.4069C9.50653 26.3073 9.5625 26.1721 9.5625 26.0312V24.9688C9.5625 24.8279 9.50653 24.6927 9.4069 24.5931C9.30727 24.4935 9.17215 24.4375 9.03125 24.4375Z" fill="#5E9C60"/>
<path d="M9.03125 27.625C8.89035 27.625 8.75523 27.681 8.6556 27.7806C8.55597 27.8802 8.5 28.0154 8.5 28.1562V29.2188C8.5 29.3596 8.55597 29.4948 8.6556 29.5944C8.75523 29.694 8.89035 29.75 9.03125 29.75C9.17215 29.75 9.30727 29.694 9.4069 29.5944C9.50653 29.4948 9.5625 29.3596 9.5625 29.2188V28.1562C9.5625 28.0154 9.50653 27.8802 9.4069 27.7806C9.30727 27.681 9.17215 27.625 9.03125 27.625Z" fill="#5E9C60"/>
</svg>
