<svg width="34" height="34" viewBox="0 0 34 34" fill="none" xmlns="http://www.w3.org/2000/svg">
<path d="M7.96875 22.3125C7.54847 22.3125 7.13762 22.4371 6.78816 22.6706C6.43871 22.9041 6.16634 23.236 6.00551 23.6243C5.84467 24.0126 5.80259 24.4399 5.88458 24.8521C5.96658 25.2643 6.16896 25.6429 6.46615 25.9401C6.76334 26.2373 7.14197 26.4397 7.55418 26.5217C7.96639 26.6037 8.39366 26.5616 8.78195 26.4007C9.17025 26.2399 9.50213 25.9675 9.73562 25.6181C9.96912 25.2686 10.0938 24.8578 10.0938 24.4375C10.0931 23.8741 9.86903 23.334 9.47065 22.9356C9.07228 22.5372 8.53214 22.3131 7.96875 22.3125ZM7.96875 25.5C7.75861 25.5 7.55319 25.4377 7.37846 25.3209C7.20373 25.2042 7.06755 25.0382 6.98713 24.8441C6.90671 24.65 6.88567 24.4363 6.92667 24.2302C6.96766 24.0241 7.06886 23.8348 7.21745 23.6862C7.36604 23.5376 7.55536 23.4364 7.76147 23.3954C7.96757 23.3544 8.18121 23.3755 8.37535 23.4559C8.5695 23.5363 8.73544 23.6725 8.85219 23.8472C8.96894 24.0219 9.03125 24.2274 9.03125 24.4375C9.03092 24.7192 8.91887 24.9892 8.71968 25.1884C8.5205 25.3876 8.25044 25.4997 7.96875 25.5Z" fill="#5E9C60"/>
<path d="M26.0313 22.3125C25.611 22.3125 25.2001 22.4371 24.8507 22.6706C24.5012 22.9041 24.2288 23.236 24.068 23.6243C23.9072 24.0126 23.8651 24.4399 23.9471 24.8521C24.0291 25.2643 24.2315 25.6429 24.5286 25.9401C24.8258 26.2373 25.2045 26.4397 25.6167 26.5217C26.0289 26.6037 26.4562 26.5616 26.8445 26.4007C27.2327 26.2399 27.5646 25.9675 27.7981 25.6181C28.0316 25.2686 28.1562 24.8578 28.1562 24.4375C28.1556 23.8741 27.9315 23.334 27.5332 22.9356C27.1348 22.5372 26.5946 22.3131 26.0313 22.3125ZM26.0313 25.5C25.8211 25.5 25.6157 25.4377 25.441 25.3209C25.2662 25.2042 25.13 25.0382 25.0496 24.8441C24.9692 24.65 24.9482 24.4363 24.9892 24.2302C25.0302 24.0241 25.1314 23.8348 25.2799 23.6862C25.4285 23.5376 25.6179 23.4364 25.824 23.3954C26.0301 23.3544 26.2437 23.3755 26.4379 23.4559C26.632 23.5363 26.7979 23.6725 26.9147 23.8472C27.0314 24.0219 27.0938 24.2274 27.0938 24.4375C27.0934 24.7192 26.9814 24.9892 26.7822 25.1884C26.583 25.3876 26.3129 25.4997 26.0313 25.5Z" fill="#5E9C60"/>
<path d="M11.1562 22.8438H22.8438V23.9062H11.1562V22.8438Z" fill="#5E9C60"/>
<path d="M11.1562 24.9688H22.8438V26.0312H11.1562V24.9688Z" fill="#5E9C60"/>
<path d="M31.875 10.625H30.2812V4.78125C30.2801 3.79532 29.888 2.85008 29.1908 2.15292C28.4937 1.45576 27.5484 1.06361 26.5625 1.0625H7.4375C6.45157 1.06361 5.50633 1.45576 4.80917 2.15292C4.11201 2.85008 3.71986 3.79532 3.71875 4.78125V6.90625H16.4688V19.6562H12.2429L14.3438 17.3219V18.5938H15.4062V13.2812H14.3438V15.7336L10.8134 19.6562H4.78125V7.96875H3.71875V10.625H2.125C1.84331 10.6253 1.57325 10.7374 1.37407 10.9366C1.17488 11.1358 1.06283 11.4058 1.0625 11.6875V17C1.06283 17.2817 1.17488 17.5517 1.37407 17.7509C1.57325 17.9501 1.84331 18.0622 2.125 18.0625H3.71875V27.0938C3.71917 27.4232 3.82152 27.7444 4.01175 28.0134C4.20198 28.2824 4.47077 28.486 4.78125 28.5961V31.875C4.78158 32.1567 4.89363 32.4267 5.09282 32.6259C5.292 32.8251 5.56206 32.9372 5.84375 32.9375H9.03125C9.31294 32.9372 9.583 32.8251 9.78218 32.6259C9.98137 32.4267 10.0934 32.1567 10.0938 31.875V28.6875H28.1562V31.875H24.9688V29.75H23.9062V31.875C23.9066 32.1567 24.0186 32.4267 24.2178 32.6259C24.417 32.8251 24.6871 32.9372 24.9688 32.9375H28.1562C28.4379 32.9372 28.708 32.8251 28.9072 32.6259C29.1064 32.4267 29.2184 32.1567 29.2188 31.875V28.5961C29.5292 28.486 29.798 28.2824 29.9883 28.0134C30.1785 27.7444 30.2808 27.4232 30.2812 27.0938V18.0625H31.875C32.1567 18.0622 32.4267 17.9501 32.6259 17.7509C32.8251 17.5517 32.9372 17.2817 32.9375 17V11.6875C32.9372 11.4058 32.8251 11.1358 32.6259 10.9366C32.4267 10.7374 32.1567 10.6253 31.875 10.625ZM4.78125 4.78125C4.78204 4.07701 5.06215 3.40184 5.56012 2.90387C6.05809 2.4059 6.73326 2.12579 7.4375 2.125H26.5625C27.2667 2.12579 27.9419 2.4059 28.4399 2.90387C28.9379 3.40184 29.218 4.07701 29.2188 4.78125V5.84375H4.78125V4.78125ZM17.5312 6.90625H29.2188V19.6562H23.1866L19.6562 15.7336V13.2812H18.5938V18.5938H19.6562V17.3219L21.7571 19.6562H17.5312V6.90625ZM2.125 17V11.6875H3.71875V17H2.125ZM9.03125 31.875H5.84375V28.6875H9.03125V31.875ZM28.6875 27.625H5.3125C5.17165 27.6248 5.03662 27.5688 4.93702 27.4692C4.83743 27.3696 4.78141 27.2346 4.78125 27.0938V20.7188H9.85714L9.6989 20.8946L10.4886 21.6051L11.2866 20.7188H22.7134L23.5114 21.6054L24.3011 20.8949L24.1429 20.7188H29.2188V27.0938C29.2186 27.2346 29.1626 27.3696 29.063 27.4692C28.9634 27.5688 28.8283 27.6248 28.6875 27.625ZM31.875 17H30.2812V11.6875H31.875L31.8757 17H31.875Z" fill="#5E9C60"/>
<path d="M16.4688 3.1875H17.5312V4.25H16.4688V3.1875Z" fill="#5E9C60"/>
<path d="M18.5938 3.1875H19.6562V4.25H18.5938V3.1875Z" fill="#5E9C60"/>
<path d="M14.3438 3.1875H15.4062V4.25H14.3438V3.1875Z" fill="#5E9C60"/>
<path d="M6.90625 3.1875H7.96875V4.25H6.90625V3.1875Z" fill="#5E9C60"/>
<path d="M26.0312 3.1875H27.0938V4.25H26.0312V3.1875Z" fill="#5E9C60"/>
</svg>
